<?xml version="1.0" encoding="UTF-8" standalone="no"?>
<!-- Created with Inkscape (http://www.inkscape.org/) -->

<svg
   width="3840px"
   height="3840px"
   viewBox="0 0 3840 3840"
   version="1.1"
   id="SVGRoot"
   sodipodi:docname="astralhive_logo.svg"
   inkscape:version="1.1.2 (0a00cf5339, 2022-02-04)"
   xmlns:inkscape="http://www.inkscape.org/namespaces/inkscape"
   xmlns:sodipodi="http://sodipodi.sourceforge.net/DTD/sodipodi-0.dtd"
   xmlns="http://www.w3.org/2000/svg"
   xmlns:svg="http://www.w3.org/2000/svg">
  <sodipodi:namedview
     id="namedview157722"
     pagecolor="#505050"
     bordercolor="#eeeeee"
     borderopacity="1"
     inkscape:pageshadow="0"
     inkscape:pageopacity="0"
     inkscape:pagecheckerboard="0"
     inkscape:document-units="px"
     showgrid="false"
     inkscape:zoom="0.20283687"
     inkscape:cx="4619.4757"
     inkscape:cy="2366.4336"
     inkscape:window-width="3440"
     inkscape:window-height="1299"
     inkscape:window-x="3360"
     inkscape:window-y="661"
     inkscape:window-maximized="1"
     inkscape:current-layer="layer1" />
  <defs
     id="defs157717" />
  <g
     inkscape:label="Layer 1"
     inkscape:groupmode="layer"
     id="layer1">
    <g
       transform="matrix(0.05134305,0,0,-0.05102918,0.22654709,3840.5356)"
       fill="#000000"
       stroke="none"
       id="g157766">
      <path
         d="m 37245,75246 c -102,-21 -178,-50 -280,-108 -129,-73 -17649,-10188 -17775,-10262 -228,-134 -373,-324 -424,-558 -15,-67 -16,-959 -14,-10498 l 3,-10425 24,-70 c 71,-211 192,-364 376,-475 237,-142 17869,-10317 17914,-10337 186,-83 456,-84 646,-3 93,40 17965,10364 18026,10413 119,96 217,242 271,402 l 23,70 3,10425 c 2,9539 1,10431 -14,10498 -20,92 -61,193 -109,268 -49,76 -155,186 -225,234 -30,20 -3491,2021 -7690,4445 -4199,2424 -7878,4548 -8175,4720 -297,171 -882,509 -1299,750 -418,242 -785,449 -816,462 -140,56 -328,76 -465,49 z m 7722,-6132 c 4151,-2397 7971,-4602 8488,-4900 l 940,-543 3,-9815 2,-9816 -22,-14 c -13,-8 -3838,-2218 -8502,-4910 -7509,-4336 -8481,-4894 -8500,-4884 -23,12 -15154,8747 -15466,8928 -63,37 -308,179 -545,315 -236,137 -551,318 -700,404 l -270,156 -3,9816 -2,9816 412,239 c 227,131 625,360 883,509 1305,753 3048,1760 9100,5254 3833,2214 6607,3810 6617,3807 9,-2 3414,-1965 7565,-4362 z"
         id="path157750" />
      <path
         d="m 39902,61593 c -5,-16 -1448,-3726 -3206,-8247 -1758,-4520 -3196,-8222 -3196,-8227 0,-5 301,-9 723,-9 l 722,1 2965,7586 c 1631,4173 3083,7888 3226,8255 l 261,668 h -742 -743 z"
         id="path157752" />
      <path
         d="m 27095,57051 -4390,-2299 v -693 -693 l 4380,-2294 c 2409,-1262 4386,-2296 4393,-2299 10,-4 12,162 10,823 l -3,828 -3472,1815 c -1909,999 -3470,1818 -3468,1822 2,3 1566,822 3474,1820 l 3471,1814 v 828 c 0,455 -1,827 -2,827 -2,0 -1978,-1035 -4393,-2299 z"
         id="path157754" />
      <path
         d="m 43400,58523 1,-828 3474,-1815 c 1911,-998 3474,-1817 3475,-1820 0,-3 -1563,-822 -3472,-1821 l -3473,-1816 -3,-827 c -1,-454 0,-826 3,-826 6,0 8731,4567 8763,4586 l 22,15 -2,691 -3,691 -4275,2239 c -2351,1231 -4328,2265 -4392,2299 l -118,60 z"
         id="path157756" />
      <path
         d="m 18450,42790 c -41,-11 -106,-35 -145,-54 C 18204,42689 395,32405 335,32360 188,32250 81,32094 23,31905 6,31847 5,31478 2,21460 0,13808 2,11054 10,10995 42,10771 173,10563 363,10437 449,10379 18108,182 18265,99 c 138,-73 222,-93 385,-93 110,0 150,4 213,22 102,29 141,49 527,272 179,103 847,489 1485,857 638,369 4495,2595 8570,4947 4076,2353 7447,4302 7492,4333 183,122 310,318 348,539 14,80 15,1184 13,10474 l -3,10385 -28,88 c -33,105 -65,171 -122,252 -55,78 -165,182 -241,227 -150,91 -17840,10301 -17891,10327 -114,57 -185,73 -343,77 -122,4 -157,1 -220,-16 z m 8700,-6657 8500,-4908 -2,-9819 -3,-9819 -8485,-4900 C 22057,3739 18665,1786 18650,1786 c -15,0 -3371,1933 -8510,4900 l -8485,4901 -3,9819 -2,9819 742,429 c 409,236 1112,642 1563,902 451,261 3941,2276 7755,4478 3814,2203 6936,4005 6938,4005 1,1 3827,-2207 8502,-4906 z"
         id="path157758" />
      <path
         d="m 11265,30030 c -247,-4 -732,-8 -1077,-9 l -627,-1 -801,-385 c -441,-212 -1129,-541 -1528,-732 -400,-190 -730,-349 -734,-352 -4,-4 -89,-238 -189,-521 -99,-283 -399,-1134 -666,-1890 -783,-2220 -1585,-4508 -2123,-6055 -153,-440 -362,-1040 -465,-1333 l -186,-533 21,-42 c 102,-209 920,-1164 2130,-2487 113,-124 363,-398 554,-610 289,-319 354,-386 378,-388 67,-7 285,86 798,343 593,296 911,463 3895,2040 1152,609 1605,847 2100,1105 72,37 328,167 570,287 l 440,220 4785,6 4785,6 485,-253 c 267,-140 688,-358 935,-486 521,-270 1567,-815 3320,-1730 1795,-937 1939,-1012 2380,-1235 397,-200 587,-288 656,-300 31,-6 42,-2 90,35 72,56 673,660 930,935 210,225 769,835 1234,1345 719,790 884,1000 902,1147 12,105 -43,296 -322,1113 -460,1346 -1065,3062 -2439,6915 l -835,2340 -178,83 c -1901,890 -2641,1253 -2739,1343 -72,66 -550,89 -1894,89 h -946 l -154,-337 c -199,-437 -681,-1487 -685,-1491 -7,-8 -5893,-32 -7765,-32 -2387,0 -2907,9 -3147,55 -111,21 -126,32 -163,122 -141,343 -317,737 -598,1338 l -159,340 -259,1 c -142,0 -461,-3 -709,-6 z m 15497,-2916 c 104,-37 324,-151 471,-243 124,-77 685,-459 720,-489 15,-14 17,-38 17,-241 -1,-473 -35,-650 -166,-854 -129,-201 -449,-434 -805,-585 -180,-77 -224,-87 -374,-86 -114,0 -140,4 -215,28 -102,34 -249,102 -391,181 -79,44 -647,390 -655,398 -1,1 -9,171 -18,377 -9,206 -18,414 -21,462 -11,196 20,344 90,426 87,103 559,412 788,516 296,134 422,159 559,110 z M 10844,26005 c 291,-8 531,-16 533,-19 2,-2 16,-446 30,-987 21,-776 29,-986 39,-995 9,-7 125,-13 331,-17 1071,-20 1904,-39 1941,-43 l 42,-5 v -848 -849 l -172,-6 c -95,-3 -616,-16 -1158,-27 -542,-12 -987,-25 -990,-30 -3,-4 -16,-412 -28,-906 -13,-494 -26,-958 -29,-1030 l -6,-133 h -957 -957 l -6,198 c -4,108 -16,575 -28,1037 -12,462 -22,841 -23,841 -1,1 -446,11 -991,23 -544,11 -1065,24 -1157,27 l -168,6 v 849 848 l 33,5 c 17,3 167,7 332,10 704,11 1922,38 1944,42 l 24,5 -8,988 c -7,960 -7,989 11,994 123,37 617,44 1418,22 z m 6414,-1043 c 256,-128 512,-374 615,-592 27,-56 31,-76 32,-150 0,-76 -4,-93 -33,-154 -94,-199 -343,-449 -542,-545 -65,-31 -87,-36 -160,-39 -376,-15 -810,337 -871,708 -30,180 51,342 261,526 90,78 254,190 336,229 162,78 235,81 362,17 z m 2970,-18 c 157,-32 278,-101 418,-239 114,-112 208,-234 243,-316 15,-33 26,-82 29,-124 4,-60 0,-84 -26,-158 -81,-237 -261,-448 -466,-547 -118,-57 -197,-73 -336,-67 -204,8 -359,78 -522,235 -112,108 -170,184 -222,292 -41,85 -41,86 -41,201 v 116 l 42,84 c 54,107 121,195 223,292 209,201 430,278 658,231 z m 9194,-468 c 159,-30 294,-101 520,-272 300,-228 484,-420 539,-563 39,-105 48,-395 19,-676 -32,-308 -134,-441 -546,-715 -594,-394 -886,-396 -1500,-8 -409,257 -520,390 -564,672 -14,88 -14,526 0,612 26,162 84,253 263,414 353,316 618,471 912,534 91,19 263,20 357,2 z m -5072,-34 c 552,-160 908,-454 1039,-860 49,-151 56,-209 56,-457 0,-244 -6,-290 -52,-395 -64,-146 -253,-336 -498,-501 -182,-123 -347,-199 -609,-284 -127,-41 -237,-75 -245,-75 -15,0 -205,116 -777,477 l -371,234 -7,162 c -4,89 -11,248 -16,352 -32,686 112,942 693,1230 251,125 364,156 552,151 108,-3 148,-9 235,-34 z m -7110,-1877 c 80,-25 173,-59 208,-76 249,-122 462,-442 462,-695 0,-63 -5,-80 -44,-160 -61,-124 -134,-224 -236,-324 -91,-90 -160,-136 -260,-177 -315,-127 -667,-19 -885,271 -110,146 -157,276 -156,432 0,256 142,485 396,642 71,43 297,131 340,132 17,0 95,-20 175,-45 z m 3118,-45 c 141,-40 258,-114 368,-234 191,-207 247,-432 159,-647 -74,-183 -290,-396 -491,-485 -205,-90 -438,-86 -624,12 -215,113 -396,365 -431,599 -51,340 226,677 631,766 110,25 281,20 388,-11 z m 6392,-702 c 91,-29 351,-138 462,-194 363,-182 590,-428 692,-752 46,-145 59,-257 59,-477 -1,-330 -32,-407 -224,-566 -226,-188 -727,-488 -924,-554 -71,-23 -170,-21 -252,5 -87,29 -553,252 -691,331 -336,193 -460,333 -525,587 -20,79 -22,112 -22,367 0,305 5,341 57,454 36,77 201,252 350,371 314,253 770,477 923,453 17,-2 59,-14 95,-25 z"
         id="path157760" />
      <path
         d="m 55981,42799 c -63,-12 -138,-38 -196,-67 -27,-13 -835,-478 -1795,-1032 -7230,-4174 -15928,-9195 -16035,-9258 -238,-140 -359,-286 -432,-519 l -28,-88 -3,-10385 c -2,-9290 -1,-10394 13,-10474 36,-210 168,-419 335,-533 80,-54 17893,-10335 17965,-10369 118,-55 184,-68 335,-68 153,0 241,19 359,78 129,65 17917,10339 17969,10379 164,125 283,328 312,532 8,59 10,2813 8,10465 -3,9961 -4,10387 -21,10445 -10,33 -40,105 -67,160 -74,151 -176,259 -335,354 -251,151 -17821,10290 -17879,10317 -113,54 -211,74 -345,73 -64,-1 -136,-5 -160,-10 z m 8660,-6666 8499,-4907 -2,-9820 -3,-9820 -8490,-4903 C 59976,3987 56150,1781 56143,1780 c -8,0 -10898,6282 -15488,8935 -165,96 -572,331 -905,523 l -605,349 -2,9819 -3,9819 788,454 c 1613,932 2706,1563 9377,5415 3757,2170 6832,3945 6834,3945 1,1 3828,-2207 8502,-4906 z"
         id="path157762" />
      <path
         d="m 57510,36153 c 0,-3126 -17,-4683 -51,-4703 -35,-22 -205,48 -634,263 -387,193 -582,276 -712,302 -79,16 -394,-93 -768,-265 -377,-173 -573,-240 -676,-231 -21,1 -26,28 -39,191 -33,422 -49,1400 -60,3665 -5,1051 -14,2083 -20,2295 -12,453 -27,751 -41,765 -18,18 -326,-145 -1016,-542 l -393,-225 v -3602 -3602 l -417,-232 c -560,-310 -874,-459 -949,-450 -27,3 -29,6 -36,63 -10,91 -27,524 -38,970 -6,220 -14,1228 -20,2240 -13,2657 -32,3691 -67,3726 -20,19 -323,-141 -963,-509 l -435,-249 -3,-3604 -2,-3604 -303,-165 c -544,-296 -1128,-626 -1587,-898 -389,-231 -696,-380 -762,-370 -28,4 -34,28 -47,186 -42,512 -62,1576 -86,4531 -7,958 -15,1745 -17,1746 -2,2 -16,-978 -31,-2178 -30,-2336 -41,-2962 -57,-3482 -25,-797 -58,-1058 -134,-1073 -76,-15 -110,175 -136,758 -23,517 -33,1116 -75,4284 -14,1028 -27,1871 -29,1874 -3,2 -48,-21 -100,-52 l -96,-57 2,-6275 3,-6276 289,-188 c 158,-104 293,-193 299,-199 8,-8 20,-403 39,-1299 25,-1197 28,-1288 45,-1300 9,-7 333,-191 718,-409 1795,-1016 2100,-1203 2301,-1415 95,-100 128,-169 128,-264 0,-64 -4,-81 -42,-157 -50,-101 -109,-179 -294,-390 -295,-336 -444,-583 -558,-926 -89,-270 -123,-482 -124,-776 0,-341 50,-618 171,-955 122,-340 298,-639 599,-1015 438,-549 1400,-1974 2602,-3855 515,-806 697,-1087 1142,-1760 234,-355 476,-721 537,-815 90,-137 117,-171 140,-177 23,-6 149,-169 678,-877 358,-479 652,-870 655,-870 3,0 302,391 665,870 458,604 667,872 683,876 26,6 50,38 218,283 150,219 358,537 667,1020 132,206 331,515 442,685 111,171 373,576 582,900 209,325 521,808 695,1075 173,267 460,710 638,985 593,918 874,1331 1062,1563 34,43 131,147 214,233 109,113 173,189 227,270 210,316 342,717 392,1193 70,675 -17,1178 -281,1616 -76,126 -166,246 -309,410 -140,161 -226,288 -257,379 -29,85 -31,253 -4,346 62,208 192,300 1536,1087 627,367 800,471 950,571 429,287 554,467 589,854 7,78 11,462 11,1081 v 960 l 188,123 c 103,67 271,178 375,246 l 187,124 -2,6185 -3,6186 -159,89 c -88,49 -163,89 -168,89 -4,0 -8,-53 -8,-117 0,-168 -47,-3722 -60,-4503 -30,-1855 -61,-2290 -165,-2290 -85,0 -118,266 -145,1165 -14,497 -27,1289 -55,3510 -14,1089 -26,2021 -28,2070 -3,116 -15,-1040 -27,-2665 -15,-1920 -32,-2898 -61,-3450 -10,-195 -24,-338 -34,-349 -35,-34 -1312,650 -2075,1112 -229,139 -314,195 -472,309 l -138,100 -2,3570 -3,3570 -265,150 c -532,301 -1011,548 -1062,548 -114,0 -124,-249 -132,-3175 -3,-1039 -10,-2108 -16,-2375 -17,-835 -41,-1283 -70,-1330 -26,-42 -217,18 -482,151 -94,47 -762,413 -777,425 -4,3 -54,2731 -70,3869 -33,2169 -37,2360 -61,2675 -30,387 -83,616 -176,756 -80,121 -186,197 -499,359 -93,49 -298,161 -455,250 -157,89 -295,167 -307,174 l -23,12 z m -880,-6011 c 1261,-689 3744,-2108 5083,-2904 785,-467 2434,-1430 2957,-1728 118,-67 232,-138 253,-158 84,-82 99,-177 106,-707 11,-802 -13,-1523 -54,-1563 -3,-4 -26,-6 -49,-5 -127,5 -399,141 -1071,536 -728,429 -3010,1737 -4965,2847 -1008,572 -1431,811 -1635,922 -510,278 -1003,527 -1143,578 l -64,23 -67,-21 c -90,-29 -375,-171 -551,-274 -511,-300 -2347,-1347 -5520,-3148 -613,-348 -1402,-797 -1754,-997 -817,-466 -871,-493 -980,-493 -69,0 -107,25 -140,92 -43,90 -57,204 -63,513 -5,246 22,1571 32,1601 2,7 45,36 97,65 51,29 208,120 348,202 140,82 347,204 460,270 706,413 2023,1170 2745,1577 627,354 1490,846 2130,1215 1104,636 2864,1631 3080,1741 218,111 220,112 250,97 16,-9 248,-135 515,-281 z m -387,-4351 c 259,-134 796,-436 1262,-711 643,-378 1184,-693 2540,-1475 1221,-704 1486,-859 1988,-1158 l 437,-261 v -611 c -1,-783 -15,-1421 -35,-1590 -42,-362 -121,-407 -355,-200 -475,420 -1969,1318 -2725,1638 -851,360 -1683,554 -2740,639 -209,17 -1005,17 -1215,0 -795,-64 -1438,-189 -2090,-409 -441,-148 -928,-370 -1465,-669 -642,-357 -1162,-701 -1585,-1050 -123,-101 -274,-203 -357,-241 -58,-27 -86,-29 -223,-21 -44,3 -45,2 -48,-30 -2,-18 4,-64 12,-102 30,-129 15,-211 -40,-224 -66,-17 -219,107 -269,216 -59,131 -80,422 -71,973 13,730 33,1152 62,1295 27,129 54,160 142,160 79,0 135,36 148,94 10,48 47,90 147,168 160,124 359,248 847,528 1741,999 3737,2169 3950,2315 242,167 1446,805 1518,805 7,0 81,-35 165,-79 z m 6503,-3845 c 85,-40 111,-91 139,-275 29,-188 37,-464 32,-1056 -6,-693 -15,-792 -92,-961 -76,-168 -250,-344 -338,-344 -67,0 -78,99 -28,261 65,212 87,513 101,1393 11,710 27,944 67,989 22,23 58,21 119,-7 z m -6346,-1426 c 568,-27 955,-82 1450,-206 480,-120 881,-264 1243,-445 318,-159 465,-260 769,-527 l 213,-187 v -800 c -1,-801 -8,-1022 -40,-1268 -17,-129 -29,-158 -72,-170 -45,-13 -78,-2 -108,38 -88,115 -135,445 -155,1080 -27,876 -36,1029 -66,1150 -29,112 -68,141 -204,152 -77,6 -79,5 -108,-24 -20,-19 -34,-47 -42,-83 -17,-78 -29,-475 -30,-972 0,-854 -32,-998 -220,-998 -234,0 -739,160 -824,260 -14,17 -26,35 -26,38 0,4 -4,34 -10,67 -24,153 -57,592 -85,1160 -28,561 -65,895 -116,1059 -22,72 -39,89 -134,132 -88,41 -135,24 -170,-59 -43,-104 -64,-456 -65,-1087 0,-543 -22,-1012 -51,-1122 -9,-36 -11,-37 -67,-44 -172,-21 -1740,31 -2277,76 -308,26 -480,66 -499,117 -8,20 -21,473 -36,1293 -10,550 -18,678 -48,759 -25,64 -56,84 -136,84 -80,0 -110,-18 -136,-76 -36,-82 -41,-185 -50,-1017 -10,-913 -18,-1054 -71,-1213 -63,-186 -173,-249 -489,-277 -141,-12 -491,-32 -495,-28 -2,2 -10,289 -19,638 -24,919 -36,1139 -73,1270 -44,159 -108,172 -328,64 -167,-82 -247,-158 -285,-269 -45,-131 -56,-283 -70,-955 -10,-484 -21,-710 -46,-934 -16,-143 -28,-184 -65,-210 -113,-79 -168,332 -185,1379 -9,571 10,762 89,894 47,79 178,214 287,295 402,300 1215,667 1805,814 324,81 783,139 1230,155 205,8 621,6 815,-3 z m -4365,-1663 c 27,-64 37,-187 42,-522 6,-342 -9,-907 -28,-1130 -26,-295 -74,-402 -165,-369 -85,30 -114,185 -135,717 -23,591 19,1025 121,1226 35,70 80,111 121,111 24,0 33,-6 44,-33 z m 8249,-73 c 42,-16 76,-129 96,-319 17,-162 24,-843 11,-1095 -17,-325 -44,-506 -79,-518 -34,-11 -72,181 -96,478 -26,310 -40,916 -27,1147 11,210 21,263 52,294 21,21 21,21 43,13 z m -3659,-2844 c 838,-38 1323,-104 1800,-245 554,-163 1025,-353 1315,-530 672,-408 1332,-1143 1330,-1480 -1,-85 -67,-167 -121,-150 -38,13 -92,69 -161,173 -80,120 -153,194 -330,336 -383,308 -909,626 -1036,626 -28,0 -32,-5 -50,-52 -39,-104 -123,-369 -231,-728 -60,-201 -175,-581 -256,-845 -80,-264 -223,-736 -317,-1050 -201,-676 -319,-1056 -435,-1410 -279,-850 -491,-1343 -629,-1464 -43,-38 -79,-42 -69,-8 4,12 15,36 25,52 38,62 62,144 100,334 68,346 222,987 469,1959 548,2153 728,3080 638,3293 -20,49 -107,93 -183,93 -144,0 -211,-160 -274,-659 -63,-495 -260,-1638 -536,-3100 -240,-1271 -379,-1941 -433,-2086 -57,-150 -159,-211 -204,-122 -38,75 -48,-18 198,1953 158,1262 216,1752 269,2255 131,1235 137,1745 25,1839 -38,32 -59,33 -87,3 -74,-79 -105,-288 -152,-1027 -70,-1115 -268,-3205 -431,-4570 -224,-1871 -515,-3093 -773,-3251 -50,-30 -74,-24 -127,30 -233,241 -495,1506 -823,3961 -167,1252 -513,4156 -556,4670 -12,143 -21,163 -87,192 -52,23 -113,20 -143,-7 -58,-52 -52,-307 21,-895 140,-1131 425,-3070 634,-4305 98,-581 132,-880 123,-1098 -6,-157 -33,-195 -85,-118 -99,147 -314,980 -658,2556 -262,1200 -440,2100 -566,2865 -131,794 -156,891 -242,919 -44,15 -179,-3 -221,-28 -63,-39 -71,-68 -70,-241 0,-170 16,-264 110,-665 139,-591 670,-2589 921,-3460 163,-571 257,-976 251,-1091 -3,-57 -4,-59 -32,-62 -24,-3 -38,6 -85,55 -47,48 -63,74 -93,153 -275,721 -1467,4341 -1579,4795 -49,202 -100,259 -224,257 -82,-1 -188,-38 -380,-132 -478,-235 -674,-409 -871,-774 -68,-125 -146,-216 -186,-216 -60,0 -105,90 -94,190 30,289 441,843 896,1207 459,368 1179,726 1805,898 427,117 840,175 1465,204 248,12 1184,12 1435,1 z m 425,-7375 c 38,-20 63,-68 55,-105 -9,-41 -58,-80 -100,-80 -42,0 -91,39 -100,80 -11,52 41,120 93,120 13,0 36,-7 52,-15 z"
         id="path157764" />
    </g>
  </g>
</svg>
