<?xml version="1.0" encoding="UTF-8" standalone="no"?>
<!-- Created with Inkscape (http://www.inkscape.org/) -->

<svg
   width="3840px"
   height="3840px"
   viewBox="0 0 3840 3840"
   version="1.1"
   id="SVGRoot"
   sodipodi:docname="astralhive_logo_semi_trans.svg"
   inkscape:version="1.1.2 (0a00cf5339, 2022-02-04)"
   xmlns:inkscape="http://www.inkscape.org/namespaces/inkscape"
   xmlns:sodipodi="http://sodipodi.sourceforge.net/DTD/sodipodi-0.dtd"
   xmlns="http://www.w3.org/2000/svg"
   xmlns:svg="http://www.w3.org/2000/svg">
  <sodipodi:namedview
     id="namedview3738"
     pagecolor="#505050"
     bordercolor="#eeeeee"
     borderopacity="1"
     inkscape:pageshadow="0"
     inkscape:pageopacity="0"
     inkscape:pagecheckerboard="0"
     inkscape:document-units="px"
     showgrid="false"
     inkscape:zoom="0.32"
     inkscape:cx="1282.8125"
     inkscape:cy="1878.125"
     inkscape:window-width="3424"
     inkscape:window-height="1283"
     inkscape:window-x="3368"
     inkscape:window-y="770"
     inkscape:window-maximized="0"
     inkscape:current-layer="layer1" />
  <defs
     id="defs3733">
    <rect
       x="5500"
       y="100"
       width="3800"
       height="4200"
       id="rect66165" />
    <clipPath
       clipPathUnits="userSpaceOnUse"
       id="clipPath156307">
      <rect
         style="fill:#000000;fill-opacity:1;fill-rule:nonzero;stroke:#000000;stroke-width:55.5863;stroke-linejoin:miter;stroke-miterlimit:4;stroke-dasharray:none;stroke-opacity:1"
         id="rect156309"
         width="476.25"
         height="846.66656"
         x="3333.75"
         y="793.75" />
    </clipPath>
  </defs>
  <g
     inkscape:label="Layer 1"
     inkscape:groupmode="layer"
     id="layer1">
    <path
       sodipodi:type="star"
       style="fill:#000000;fill-opacity:0.359599;stroke:#000000;stroke-width:200.003;stroke-linejoin:round;stroke-miterlimit:4;stroke-dasharray:none;stroke-opacity:1"
       id="path61"
       inkscape:flatsided="true"
       sodipodi:sides="6"
       sodipodi:cx="4500"
       sodipodi:cy="4500"
       sodipodi:r1="2500"
       sodipodi:r2="2165.0635"
       sodipodi:arg1="-1.5707963"
       sodipodi:arg2="-1.0471976"
       inkscape:rounded="0"
       inkscape:randomized="0"
       transform="matrix(0.42270723,0,0,0.420053,-943.34404,858.58684)"
       inkscape:transform-center-x="-6.7310299e-05"
       inkscape:transform-center-y="-2.4373534e-05"
       inkscape:export-filename="/home/asad/Pictures/path61.png"
       inkscape:export-xdpi="96"
       inkscape:export-ydpi="96"
       d="m 4500.0001,2000 2165.0634,1250.0001 0,2500 L 4499.9999,7000 2334.9365,5749.9999 l 0,-2500 z" />
    <path
       sodipodi:type="star"
       style="fill:#000000;fill-opacity:0.359599;stroke:#000000;stroke-width:200.003;stroke-linejoin:round;stroke-miterlimit:4;stroke-dasharray:none;stroke-opacity:1"
       id="path61-6"
       inkscape:flatsided="true"
       sodipodi:sides="6"
       sodipodi:cx="4500"
       sodipodi:cy="4500"
       sodipodi:r1="2500"
       sodipodi:r2="2165.0635"
       sodipodi:arg1="-1.5707963"
       sodipodi:arg2="-1.0471976"
       inkscape:rounded="0"
       inkscape:randomized="0"
       transform="matrix(0.42270723,0,0,0.420053,981.48069,858.58684)"
       inkscape:transform-center-x="-1.2388854e-05"
       inkscape:transform-center-y="-2.4373534e-05"
       inkscape:export-filename="/home/asad/Pictures/path61.png"
       inkscape:export-xdpi="96"
       inkscape:export-ydpi="96"
       d="m 4500.0001,2000 2165.0634,1250.0001 0,2500 L 4499.9999,7000 2334.9365,5749.9999 l 0,-2500 z" />
    <path
       sodipodi:type="star"
       style="fill:#000000;fill-opacity:0.359599;fill-rule:nonzero;stroke:#000000;stroke-width:200.003;stroke-linejoin:round;stroke-miterlimit:4;stroke-dasharray:none;stroke-opacity:1"
       id="path61-6-7"
       inkscape:flatsided="true"
       sodipodi:sides="6"
       sodipodi:cx="4500"
       sodipodi:cy="4500"
       sodipodi:r1="2500"
       sodipodi:r2="2165.0635"
       sodipodi:arg1="-1.5707963"
       sodipodi:arg2="-1.0471976"
       inkscape:rounded="0"
       inkscape:randomized="0"
       transform="matrix(0.42270723,0,0,0.42005301,19.068388,-796.67252)"
       inkscape:transform-center-x="1.4169043e-05"
       inkscape:transform-center-y="-2.6545227e-05"
       inkscape:export-filename="/home/asad/Pictures/path61.png"
       inkscape:export-xdpi="96"
       inkscape:export-ydpi="96"
       d="m 4500.0001,2000 2165.0634,1250.0001 0,2500 L 4499.9999,7000 2334.9365,5749.9999 l 0,-2500 z" />
    <path
       d="m 413.4833,2347.0514 -78.81806,37.4155 -30.02546,84.8358 c -40.8165,114.42 -110.25141,311.5011 -134.17808,380.24 -10.79054,30.8891 -20.64281,58.7329 -21.58098,61.3431 -1.87692,4.7856 43.16219,56.9927 129.01708,150.0949 14.07488,15.6621 26.74198,29.1489 27.21088,30.0188 3.28383,4.3508 35.65561,-12.1815 226.60114,-112.6794 53.01458,-27.8439 114.00453,-60.0381 136.05513,-70.9147 l 39.87773,-20.0124 h 245.83639 l 245.36733,-0.4352 45.039,23.4932 c 25.3342,12.6166 99.4605,51.3368 165.1416,85.2712 166.5499,86.5764 184.3774,95.7125 190.477,95.7125 3.2836,0 34.7169,-31.7592 70.3726,-70.4789 96.1768,-104.4141 92.4233,-99.1932 89.1392,-115.7257 -0.938,-7.8309 -43.1622,-127.9067 -92.8923,-267.1251 l -90.5466,-252.3333 -73.657,-34.3695 c -40.3474,-18.7076 -74.5958,-36.1099 -76.4721,-38.7202 -1.877,-2.6103 -30.0261,-4.3506 -74.1262,-4.3506 H 1280.01 l -21.5813,46.9863 -21.581,46.5511 -282.43016,1.3051 c -265.54138,0.8701 -282.43085,0.4352 -285.24543,-6.5255 -1.40716,-4.3505 -10.79079,-26.1035 -21.1122,-48.2918 l -18.76614,-40.0252 -68.96579,0.8702 -68.49627,0.4349 z m 995.075,128.7772 28.6182,19.5776 v 23.493 c 0,27.8437 -11.2596,43.0709 -43.6316,59.1679 -23.9265,11.7465 -33.3098,10.4416 -66.6197,-9.5712 l -23.4576,-14.3571 -1.4077,-30.8891 c -1.4071,-30.4541 -0.938,-30.889 14.0751,-41.7652 22.0502,-15.6623 42.2236,-24.7986 53.4834,-25.2336 5.6299,0 22.9884,8.7011 38.9399,19.5777 z m -821.48822,90.0571 1.40718,50.9015 59.58265,1.3052 59.58277,1.3052 v 43.5057 43.5054 l -59.58277,1.3056 -59.58265,1.3051 -1.40718,53.0769 -1.40764,53.0773 h -49.26087 -49.26124 l -1.40753,-53.0773 -1.40731,-53.0769 -59.58275,-1.3051 -59.58228,-1.3056 v -43.5054 -43.5057 l 60.05167,-1.3052 60.05153,-1.3052 -0.4689,-48.7265 c -0.46927,-26.9737 -0.46927,-50.4666 -0.46927,-52.207 0.46927,-1.74 22.98852,-2.6101 51.13792,-2.1753 l 50.19903,1.3053 z m 318.08617,13.9217 c 9.85231,9.1362 15.95129,19.1427 15.95129,25.6682 0,13.0518 -24.86543,37.85 -38.00165,37.85 -25.80337,0 -51.13766,-27.4087 -44.10045,-47.4212 3.75333,-11.7464 29.08752,-30.8888 40.81664,-30.8888 5.16042,0 16.42003,6.5254 25.33417,14.7918 z m 159.04345,3.4804 c 13.1359,14.3568 14.074,21.3177 6.5678,35.2396 -15.0129,27.4085 -44.5698,32.1944 -65.6817,11.3113 -15.95086,-16.0968 -17.35839,-29.1484 -3.7531,-44.8105 19.2356,-22.6232 43.631,-23.0581 62.867,-1.7404 z m 202.205,16.0971 c 27.6799,11.7465 41.7544,31.7594 41.7544,60.038 0,19.5775 -1.8766,24.3632 -15.9511,37.8498 -8.914,8.266 -25.3345,18.2727 -36.5938,21.7529 l -20.1741,6.5259 -29.5566,-18.2726 -29.0872,-18.2722 -1.4077,-28.7138 c -1.4077,-32.629 6.0992,-45.6808 35.6561,-60.4729 21.5808,-10.4411 31.4328,-10.4411 55.36,-0.4351 z m 256.6265,-3.4805 c 5.6302,2.6104 18.2973,11.7465 28.1497,20.4478 15.4819,14.3568 17.359,17.8373 16.8895,37.85 -0.469,29.5839 -3.2841,34.8045 -29.557,52.2065 -27.6798,18.2726 -43.1623,19.1428 -68.9649,4.3508 -32.8412,-19.5777 -37.0639,-25.6684 -37.0639,-53.5119 0,-22.6229 1.4079,-26.5386 15.4823,-38.7202 27.6803,-25.2333 53.4837,-33.0645 75.0643,-22.623 z m -630.54208,95.7126 c 15.01282,4.7856 28.61842,22.6232 28.61842,38.285 0,4.7856 -5.63002,14.3571 -12.19798,21.753 -19.70458,21.7531 -50.66859,17.4027 -65.21264,-8.7013 -10.79028,-19.1424 0,-43.0706 23.4579,-52.2067 5.16053,-1.7403 9.38301,-3.4806 9.85208,-3.4806 0.46939,-0.4348 7.03745,1.7403 15.48222,4.3506 z m 171.71058,10.8764 c 15.9506,16.0973 15.4817,33.9345 -1.877,50.0315 -22.0504,20.013 -49.7305,16.0973 -63.80467,-9.5712 -21.11231,-36.9798 35.18637,-71.3493 65.68167,-40.4603 z m 330.7529,33.4993 c 28.6182,13.0519 42.2239,33.065 42.2239,62.2133 0,21.3181 -1.4074,23.4931 -17.3587,35.6749 -9.8521,6.9608 -24.8652,16.0968 -32.8409,20.0125 -15.0127,6.9609 -16.4201,6.9609 -39.4089,-4.3507 -38.4704,-17.8368 -46.4461,-27.4083 -46.4461,-56.5574 0,-22.6228 1.4073,-25.6681 17.3588,-40.0252 16.4204,-14.3568 40.3473,-26.5385 50.6685,-26.5385 2.815,0 14.0746,4.3507 25.8034,9.5711 z"
       id="path7355"
       style="stroke-width:0.451781"
       inkscape:export-filename="/home/asad/Pictures/path61.png"
       inkscape:export-xdpi="96"
       inkscape:export-ydpi="96" />
    <g
       id="g157453"
       transform="matrix(1.9403343,0,0,1.928094,-1879.8224,-71.877828)"
       inkscape:export-filename="/home/asad/Pictures/path61.png"
       inkscape:export-xdpi="96"
       inkscape:export-ydpi="96">
      <path
         d="m 3607.3241,892.04542 c 0,49.0337 -0.465,89.7016 -1.1621,90.3987 -0.6972,0.6972 -7.9011,-2.3238 -15.8023,-6.5068 -7.9012,-4.1829 -16.4996,-7.9012 -19.0558,-7.9012 -2.5564,0 -11.3871,3.2535 -19.2882,6.9716 -8.1336,3.9506 -15.8024,6.5068 -16.9643,5.5773 -1.162,-0.6971 -2.0915,-38.5763 -2.0915,-88.3073 0,-47.8719 -0.6971,-86.91253 -1.6267,-86.91253 -0.9296,0 -9.2955,4.41543 -18.5911,9.76043 l -16.9642,9.75976 v 91.09584 91.32848 l -16.732,9.2955 c -9.2955,5.1125 -17.6614,8.8306 -18.5909,8.1335 -0.9298,-0.6971 -1.8592,-40.90018 -1.8592,-89.46928 0,-48.3366 -0.6972,-88.0749 -1.6267,-88.0749 -0.9296,0 -9.2955,4.4154 -18.591,9.7603 l -16.9643,9.7602 v 91.096 91.32838 l -17.8939,9.7603 c -9.9927,5.5773 -24.6329,13.9433 -32.7665,18.8234 -8.1338,4.8802 -15.57,8.366 -16.9643,7.6688 -1.1622,-0.9296 -2.324,-36.4849 -2.5564,-86.68058 l -0.6971,-85.2863 -1.162,89.46928 c -0.9295,77.3851 -1.6268,89.4692 -4.6478,89.4692 -3.0209,0 -3.718,-11.8518 -4.6476,-87.6101 l -1.162,-87.84258 -40.6678,23.4712 c -22.3092,13.0137 -53.4494,31.1399 -69.0193,40.203 -15.5699,9.0632 -39.0411,22.77408 -52.0548,30.21048 -12.7813,7.6687 -26.9569,17.1967 -31.3724,21.1472 l -7.9012,7.4364 v 240.0565 c 0,274.4499 -2.3238,247.9576 22.5418,262.3657 7.4362,4.4154 22.3093,13.4785 33.2314,20.2178 10.9222,6.5068 41.1326,24.633 67.3924,39.7382 26.2598,15.3376 84.3567,49.4986 128.9752,76.2232 44.8508,26.4922 103.645,61.3512 130.8341,77.1536 l 49.2664,29.0484 19.2882,-11.1546 c 25.3301,-14.8729 214.4938,-126.6522 235.1762,-138.9687 9.0631,-5.5773 29.2809,-17.6614 45.3155,-26.957 16.0349,-9.5278 42.0624,-24.8654 58.097,-34.3934 16.0349,-9.5278 35.7878,-21.1473 44.1538,-25.5626 8.366,-4.4154 18.5908,-11.6194 22.5415,-16.4995 l 7.6688,-8.366 v -240.986 -240.986 l -7.6688,-7.9012 c -4.4152,-4.183 -20.2177,-15.1052 -35.5554,-24.1683 -27.4216,-16.26708 -124.095,-72.27258 -146.1717,-84.58908 l -11.6194,-6.5069 -1.1619,87.61018 c -0.9295,75.7583 -1.6267,87.6101 -4.6478,87.6101 -3.021,0 -3.7182,-12.0841 -4.6477,-89.4692 l -1.162,-89.46928 -0.6971,85.2863 c -0.2326,46.94228 -1.1619,85.75098 -2.324,86.44818 -1.6267,0.9296 -48.569,-24.8655 -61.3502,-33.6963 l -6.5069,-4.6477 v -90.39878 -90.3988 l -14.4082,-8.1336 c -8.1334,-4.4154 -16.4995,-8.8306 -18.5907,-9.5279 -3.9508,-1.6266 -4.1832,3.4859 -4.1832,85.5187 0,56.935 -0.9295,87.84258 -2.324,88.77208 -1.3941,0.9296 -9.0629,-2.0914 -17.1966,-6.7392 l -14.6405,-8.1336 -1.6268,-91.32838 c -1.6266,-104.10905 1.3944,-91.09597 -25.0979,-105.96823 l -13.4781,-7.66878 z m 276.3088,112.01078 c 17.4291,10.4574 42.2946,25.0979 55.3082,32.5343 13.2461,7.4364 24.8656,14.6404 26.26,16.2671 1.6267,1.8591 2.0913,78.7794 1.8589,230.0638 l -0.6971,227.0428 -33.6961,20.2177 c -18.591,11.1547 -69.2516,41.365 -112.7082,66.9277 -43.4564,25.5626 -87.8425,51.8225 -98.7648,58.3293 -10.9222,6.2744 -49.4985,29.0484 -85.5184,50.1958 l -65.9982,38.5771 -33.9287,-19.9853 c -18.8234,-11.155 -57.1673,-33.6971 -85.2862,-50.4289 -28.1189,-16.4996 -55.7731,-32.9991 -61.5829,-36.485 -5.8095,-3.7181 -14.1755,-8.5983 -18.591,-11.1546 -18.8233,-10.4574 -56.0053,-32.3019 -110.384,-64.8362 -32.0695,-19.0557 -65.0686,-38.5763 -73.6669,-43.4564 l -15.8024,-8.8308 v -225.8808 -226.1132 l 5.3448,-4.6478 c 2.7888,-2.5562 14.6406,-9.9926 26.0276,-16.4995 11.6193,-6.5068 37.6469,-21.8445 58.0969,-33.9286 20.4502,-12.31648 38.8088,-22.07678 40.6677,-21.84438 3.0212,0.6971 3.7183,16.4995 4.6479,120.37678 0.6971,65.7657 1.3944,119.912 1.859,119.912 0.2324,0.2324 9.7602,6.5068 21.3797,13.7109 l 20.6825,13.4785 0.6971,32.7667 0.6973,32.7666 40.2031,22.774 c 46.2451,26.4922 46.7097,27.1894 29.9779,45.7804 -22.0767,24.6331 -21.1474,61.118 2.5563,89.934 10.4576,12.549 37.6468,52.9844 69.2514,102.483 7.4365,11.8518 22.0769,34.3934 32.5344,49.9634 l 18.591,28.3512 13.0136,3.2535 c 10.9223,2.7885 15.3377,2.7885 26.0275,0.4647 14.6406,-3.2534 15.5701,-4.183 51.1253,-59.956 9.0632,-13.7109 23.7036,-36.7173 32.7666,-50.6605 9.2956,-14.1757 23.0064,-35.5553 30.9076,-47.6395 7.9012,-12.3166 16.9644,-24.6331 19.9855,-27.1894 9.9925,-8.5983 16.0347,-23.471 17.1966,-42.0621 1.3943,-20.2177 -3.0211,-33.9286 -15.1053,-47.1747 -6.2744,-6.9716 -7.9011,-10.4574 -7.204,-16.2672 0.6972,-6.7392 3.2535,-8.8307 34.3935,-26.957 47.4071,-27.8864 44.1537,-23.2387 44.1537,-59.9559 v -30.6752 l 16.9642,-11.1546 c 9.0632,-6.0421 19.0559,-13.2461 22.077,-15.8024 l 5.1123,-4.6478 v -117.8205 c 0,-64.8361 0.6972,-118.28528 1.3945,-119.21488 1.859,-1.8591 9.2954,2.0915 47.1746,25.09788 z m -230.9934,49.4986 c 25.5627,14.6404 51.1253,29.5133 56.9351,32.9991 17.6614,10.6897 76.6879,45.0831 82.73,48.3366 5.3449,3.021 5.5772,3.7181 5.5772,30.4427 0,15.1052 -0.6972,27.8866 -1.3944,28.8161 -1.6266,1.6267 -9.7602,-2.0914 -28.8158,-13.4784 -16.2673,-9.7603 -115.2644,-66.2306 -159.6504,-91.3284 -18.8236,-10.4575 -35.7877,-19.0558 -37.647,-19.0558 -1.859,0 -10.2249,3.9506 -18.591,9.0631 -8.3659,4.8802 -53.4491,30.6752 -100.159,57.1674 -46.71,26.4922 -89.2368,50.6605 -94.814,53.9139 -15.8024,9.0632 -16.9645,7.4365 -16.2673,-24.1683 l 0.6971,-27.1894 11.6195,-6.7391 c 22.774,-13.4786 56.0054,-32.5344 73.202,-42.2946 9.528,-5.345 42.0624,-23.7037 72.0404,-41.1327 30.2102,-17.1967 59.0264,-33.4638 63.9065,-36.2524 l 9.2955,-4.6478 17.4291,9.5278 c 9.5279,5.1126 38.3439,21.3798 63.9065,36.0202 z m -52.5195,85.9834 c 14.8728,8.8307 42.0622,24.6331 60.6533,35.323 18.5907,10.6897 42.2943,24.4006 52.9842,30.6751 l 19.0559,11.387 v 31.1399 c 0,33.2315 -1.3944,37.4145 -9.993,29.5133 -8.8305,-8.1336 -41.5971,-28.3513 -60.8853,-37.6468 -49.9634,-24.4007 -116.4262,-26.957 -168.4811,-6.7393 -20.6825,7.9012 -52.5196,26.4923 -68.0896,39.5059 -6.9716,6.0422 -12.549,9.0632 -14.8728,8.1336 -2.7888,-1.1619 -3.2534,-0.2324 -2.3238,3.2534 1.6266,6.2745 -1.6268,7.6688 -6.2746,2.5564 -3.2533,-3.4859 -3.718,-8.8308 -3.2533,-34.1611 0.6971,-26.9569 1.1618,-29.9779 4.88,-29.7456 2.0916,0.2324 3.9505,-0.9296 3.9505,-2.7887 0,-1.6267 8.1337,-7.6687 18.1263,-13.2461 36.7174,-20.9148 103.8775,-60.1884 106.2012,-62.0475 3.9506,-3.2534 37.1821,-20.9148 39.2736,-20.9148 0.9295,0 14.1755,7.204 29.0485,15.8023 z m 144.3126,113.1728 c 0,23.0065 -0.6971,26.957 -4.88,32.3019 -5.8098,7.4364 -9.7603,6.0421 -6.7392,-2.3238 1.3943,-3.2535 2.3238,-17.6615 2.3238,-32.0695 0,-14.4081 0.6971,-26.957 1.6267,-27.6542 0.6971,-0.9295 2.7887,-0.4647 4.6476,0.9295 2.0917,1.8591 3.0211,9.7603 3.0211,28.8161 z m -137.8059,9.5279 c 24.1683,4.8802 44.851,13.4786 56.2379,23.2388 l 9.5278,8.3659 v 27.4218 c 0,15.1052 -0.9294,28.1189 -2.0913,28.816 -4.8803,3.0211 -7.2042,-6.2744 -7.6689,-32.5343 -0.6971,-26.7245 -0.9295,-27.6541 -5.8097,-28.3512 -5.3448,-0.6972 -5.3448,-0.4648 -5.3448,25.0979 0,21.1473 -0.6972,26.0274 -3.7183,27.1893 -3.9506,1.3944 -21.3796,-3.4858 -23.2388,-6.7393 -0.6972,-0.9295 -1.8591,-14.6403 -2.5562,-30.2103 -0.6972,-17.1967 -2.324,-29.2808 -3.9507,-30.2104 -7.4362,-4.8802 -8.3659,-2.0916 -8.3659,26.9569 0,16.0348 -0.6971,29.5133 -1.6266,29.978 -1.1621,0.6973 -17.4292,0.4648 -36.7173,-0.4647 -25.3301,-0.9296 -34.8582,-2.0915 -35.0906,-4.4154 -0.2324,-1.3944 -0.4648,-14.408 -0.6972,-28.3513 -0.2322,-23.9359 -0.4647,-25.5626 -4.88,-25.5626 -4.4154,0 -4.6479,1.6267 -4.6479,30.2104 0,33.6962 -0.4648,34.3933 -17.8939,35.5552 l -8.8306,0.4648 -0.6972,-26.2597 c -0.6971,-26.957 -1.1618,-28.119 -10.4575,-23.4712 -7.6687,4.183 -8.1335,5.3449 -8.366,31.8371 -0.2322,13.4785 -1.1618,25.5627 -1.859,26.7246 -3.2534,5.3449 -5.1125,-3.9506 -5.5772,-27.8865 -0.4649,-24.8655 -0.2325,-26.4922 5.1123,-32.3019 7.669,-8.366 35.323,-21.3797 53.217,-25.0979 20.45,-4.4154 54.6109,-4.4154 75.9906,0 z m -136.8763,64.139 c -0.4647,21.612 -1.3943,26.2599 -4.183,26.2599 -2.7885,0 -3.7182,-3.9506 -4.1829,-19.9854 -0.6971,-19.9853 1.8591,-32.302 6.5069,-32.302 1.6267,0 2.3239,8.8308 1.859,26.0275 z m 210.7757,1.3943 c 0,32.5343 -4.4154,32.302 -5.3449,-0.2323 -0.4648,-19.753 0,-25.0979 2.3239,-24.4008 2.0914,0.6973 3.021,7.4364 3.021,24.6331 z m -57.3998,51.5901 c 10.6898,2.5563 26.0275,7.9012 34.161,11.8518 21.8445,10.4574 45.7803,37.4144 39.0412,44.1537 -1.8593,1.859 -3.7183,0.2323 -6.7394,-4.8802 -3.9505,-6.5069 -32.0694,-25.3303 -34.6256,-23.0064 -0.4649,0.4648 -3.9507,11.387 -7.669,24.1683 -3.9505,12.7814 -12.084,39.5059 -17.8936,59.2589 -11.1548,36.4848 -18.3588,54.6111 -22.7742,57.3998 -1.3943,0.9295 -1.6266,0.2323 -0.6971,-1.3944 1.162,-1.6267 2.0916,-5.1125 2.5562,-7.9012 0.2324,-2.7886 4.8802,-22.3091 10.2252,-43.4564 16.2671,-62.9771 21.1472,-89.0045 17.1966,-91.3284 -6.5067,-3.9506 -9.2954,0.2324 -10.9221,16.0348 -1.6267,15.8023 -20.4503,117.1234 -23.936,129.2075 -2.0915,7.204 -6.7392,7.6688 -6.2744,0.6972 0.2324,-2.5563 2.5563,-21.3797 5.1125,-41.8298 10.9222,-85.2863 12.3166,-108.0603 6.7391,-108.0603 -2.5563,0 -3.7181,6.5069 -4.8801,26.7246 -1.6266,28.5837 -9.0631,105.2716 -13.246,133.6229 -6.2744,45.0832 -14.4081,70.181 -20.4501,63.6742 -7.2042,-7.6688 -15.57,-53.6815 -26.7246,-147.3338 -5.5774,-45.5479 -8.366,-70.6458 -8.366,-73.8992 0,-1.3944 -1.6267,-2.7887 -3.7182,-2.7887 -3.2535,0 -3.4857,2.0915 -2.3239,15.57 2.3239,21.3796 12.0843,89.2368 17.429,119.2149 4.4155,25.0978 3.2536,38.344 -1.859,22.5416 -5.3449,-15.8024 -22.774,-95.7438 -28.119,-128.2781 -3.9506,-24.8654 -4.4152,-26.7245 -7.6688,-26.7245 -9.0631,0.2324 -9.0631,3.2534 1.6268,44.386 5.8097,22.3092 13.9432,52.752 18.3585,67.8572 4.4155,14.8728 7.2041,27.8865 6.0423,28.3513 -0.9297,0.6972 -3.0211,-0.6971 -4.4155,-3.2534 -3.021,-6.042 -38.3439,-112.708 -40.6679,-122.9331 -1.859,-9.0631 -5.1124,-9.2955 -20.2178,-1.1619 -7.9012,4.4154 -13.0135,9.0631 -16.267,15.3376 -3.2533,6.5068 -5.3449,8.3659 -6.9716,6.7392 -3.9505,-3.9506 2.0915,-15.8023 14.6406,-28.5837 13.0135,-13.4785 37.879,-26.2598 60.4205,-30.9075 23.7038,-5.345 80.4063,-4.6478 103.8774,0.9295 z m -26.492,186.1426 c -0.6974,1.1619 -2.324,1.6267 -3.4861,0.6971 -1.1618,-0.6971 -1.6266,-2.3239 -0.6972,-3.4858 0.6972,-1.1619 2.3241,-1.6267 3.4859,-0.6971 1.1619,0.6971 1.6267,2.3238 0.6974,3.4858 z"
         id="path156055"
         style="stroke-width:0.232389"
         clip-path="url(#clipPath156307)"
         transform="matrix(1.0448946,0,0,1.0448946,-1278.065,170.71675)" />
      <path
         sodipodi:type="star"
         style="fill:#000000;fill-opacity:1;fill-rule:nonzero;stroke:#000000;stroke-width:200;stroke-linejoin:miter;stroke-miterlimit:4;stroke-dasharray:none;stroke-opacity:1"
         id="path157290"
         inkscape:flatsided="true"
         sodipodi:sides="3"
         sodipodi:cx="9400"
         sodipodi:cy="7100"
         sodipodi:r1="100"
         sodipodi:r2="50"
         sodipodi:arg1="0"
         sodipodi:arg2="1.0471976"
         inkscape:rounded="0"
         inkscape:randomized="0"
         transform="matrix(-0.14402224,-0.06413127,0.08374434,-0.11029199,3211.7099,3278.6781)"
         inkscape:transform-center-x="-2.3796136"
         inkscape:transform-center-y="-3.0881753"
         d="m 9500,7100 -150,86.6025 v -173.205 z" />
    </g>
    <path
       d="m 1633.101,1445.543 -42.027,40.4743 q -8.4055,8.0948 -19.3325,8.0948 -10.9269,0 -19.3323,-8.0948 l -391.6914,-377.2204 q -8.4055,-8.0949 -8.4055,-18.6182 0,-10.5233 8.4055,-18.6182 l 391.6914,-377.2203 q 8.4054,-8.09487 19.3323,-8.09487 10.927,0 19.3325,8.09487 l 42.027,40.47428 q 8.4054,8.09486 8.4054,18.61816 0,10.52332 -8.4054,18.61818 l -330.3321,318.12788 330.3321,318.128 q 8.4054,8.0948 8.4054,18.6181 0,10.5234 -8.4054,18.6182 z M 2129.8598,581.82168 1816.3386,1626.8678 q -3.3622,10.5233 -13.0284,15.7849 -9.6662,5.2617 -19.7527,2.0238 l -52.1133,-13.7612 q -10.9271,-3.238 -16.3906,-12.5471 -5.4635,-9.3091 -2.1014,-19.8325 L 2026.4735,553.48967 q 3.3622,-10.5233 13.0284,-15.78496 9.6661,-5.26166 19.7526,-2.02372 l 52.1135,13.76126 q 10.927,3.23794 16.3904,12.54703 5.4635,9.30909 2.1014,19.8324 z m 552.2345,526.97522 -391.6914,377.2204 q -8.4054,8.0948 -19.3324,8.0948 -10.9271,0 -19.3324,-8.0948 l -42.027,-40.4743 q -8.4053,-8.0948 -8.4053,-18.6182 0,-10.5233 8.4053,-18.6181 l 330.3321,-318.128 -330.3321,-318.12788 q -8.4053,-8.09486 -8.4053,-18.61818 0,-10.5233 8.4053,-18.61816 l 42.027,-40.47428 q 8.4053,-8.09487 19.3324,-8.09487 10.927,0 19.3324,8.09487 l 391.6914,377.2203 q 8.4054,8.0949 8.4054,18.6182 0,10.5233 -8.4054,18.6182 z"
       id="path833"
       style="stroke-width:0.824867" />
  </g>
</svg>
