<?xml version="1.0" encoding="UTF-8" standalone="no"?>
<!-- Created with Inkscape (http://www.inkscape.org/) -->

<svg
   width="3840px"
   height="3840px"
   viewBox="0 0 3840 3840"
   version="1.1"
   id="SVGRoot"
   sodipodi:docname="astralhive_logo.svg"
   inkscape:version="1.1.2 (0a00cf5339, 2022-02-04)"
   xmlns:inkscape="http://www.inkscape.org/namespaces/inkscape"
   xmlns:sodipodi="http://sodipodi.sourceforge.net/DTD/sodipodi-0.dtd"
   xmlns="http://www.w3.org/2000/svg"
   xmlns:svg="http://www.w3.org/2000/svg">
  <sodipodi:namedview
     id="namedview157722"
     pagecolor="#505050"
     bordercolor="#eeeeee"
     borderopacity="1"
     inkscape:pageshadow="0"
     inkscape:pageopacity="0"
     inkscape:pagecheckerboard="0"
     inkscape:document-units="px"
     showgrid="false"
     inkscape:zoom="0.14342733"
     inkscape:cx="4225.1362"
     inkscape:cy="3325.726"
     inkscape:window-width="3424"
     inkscape:window-height="1259"
     inkscape:window-x="3368"
     inkscape:window-y="693"
     inkscape:window-maximized="0"
     inkscape:current-layer="layer1" />
  <defs
     id="defs157717" />
  <g
     inkscape:label="Layer 1"
     inkscape:groupmode="layer"
     id="layer1">
    <path
       d="m 1904.5645,1.0946307 c -10.5042,1.8837443 -18.331,4.4851188 -28.8353,9.6878503 C 1862.4446,17.330751 58.184004,924.66986 45.208004,931.3079 21.727929,943.328 6.7954929,960.37135 1.5433552,981.36183 -0.00149701,987.37179 -0.10439358,1067.3862 0.10159998,1923.057 l 0.30889032,935.1467 2.4715233,6.2792 c 7.3118744,18.9274 19.7727894,32.6518 38.7216014,42.6086 24.406943,12.7377 1840.201785,925.4591 1844.835885,927.2531 19.1548,7.4453 46.9604,7.535 66.527,0.2692 9.5773,-3.5879 1850.0879,-929.675 1856.37,-934.0703 12.2549,-8.6117 22.3473,-21.7081 27.9083,-36.0606 l 2.3687,-6.2792 0.3089,-935.1467 c 0.2061,-855.6708 0.102,-935.68521 -1.4419,-941.69517 -2.0594,-8.25263 -6.2816,-17.31267 -11.2252,-24.04036 -5.0458,-6.81734 -15.9619,-16.68459 -23.1708,-20.99031 C 3800.9951,934.53711 3444.571,755.0427 3012.1457,537.60429 2579.7204,320.16583 2200.8463,129.63807 2170.2605,114.20927 2139.6746,98.870168 2079.4294,68.550782 2036.4855,46.932525 1993.439,25.224561 1955.6441,6.6561772 1952.4516,5.4900455 1938.034,0.46670434 1918.6732,-1.3273362 1904.5645,1.0946307 Z m 795.234,550.0546893 c 427.482,215.01662 820.8771,412.81019 874.1191,439.5415 l 96.804,48.70828 0.3087,880.4284 0.2061,880.5183 -2.2655,1.2558 c -1.339,0.7176 -395.2487,198.9599 -875.5609,440.4387 -773.2985,388.9493 -873.398,439.0032 -875.3548,438.1061 -2.3687,-1.0765 -1560.60286,-784.6266 -1592.73367,-800.8625 -6.48791,-3.319 -31.71863,-16.0567 -56.12556,-28.2563 -24.30405,-12.2892 -56.74374,-28.5252 -72.08816,-36.2397 l -27.80535,-13.9936 -0.30889,-880.5181 -0.20599,-880.5181 42.42888,-21.439 c 23.37718,-11.7509 64.36432,-32.29277 90.93389,-45.65852 134.39274,-67.54574 313.89209,-157.87602 937.14455,-471.29607 394.7335,-198.60091 680.408,-341.76586 681.438,-341.49676 0.9267,0.17941 351.5837,176.2651 779.0656,391.28157 z"
       id="path157750"
       style="stroke-width:0.0961137" />
    <path
       d="m 2178.1902,1225.8007 c -0.5149,1.4351 -149.1194,334.2309 -330.1632,739.7751 -181.044,405.4544 -329.1335,737.5326 -329.1335,737.9811 0,0.4485 30.9979,0.8075 74.4567,0.8075 l 74.3537,-0.09 305.3442,-680.482 c 167.9652,-374.3268 317.4965,-707.5711 332.223,-740.4917 l 26.8785,-59.9212 h -76.4134 -76.5161 z"
       id="path157752"
       style="stroke-width:0.0961137" />
    <path
       d="m 859.2879,1633.2287 -452.09482,206.2256 v 62.1637 62.1637 l 451.06505,205.7773 c 248.08577,113.2043 451.68307,205.9567 452.40377,206.2256 1.0301,0.3589 1.2358,-14.5317 1.0301,-73.8249 l -0.3091,-74.2735 -357.55653,-162.8099 c -196.59442,-89.6126 -357.35074,-163.0788 -357.14474,-163.4375 0.20599,-0.2691 161.27118,-73.7354 357.76251,-163.2583 l 357.45356,-162.7202 v -74.2734 c 0,-40.8147 -0.102,-74.1839 -0.2057,-74.1839 -0.206,0 -203.7003,92.8418 -452.4041,206.2257 z"
       id="path157754"
       style="stroke-width:0.0961137" />
    <path
       d="m 2538.4244,1501.1869 0.1018,74.2734 357.7627,162.8098 c 196.8002,89.523 357.7624,162.9893 357.8656,163.2584 0,0.269 -160.9623,73.7352 -357.5568,163.3478 l -357.6596,162.8993 -0.3089,74.1841 c -0.102,40.7249 0,74.0941 0.3089,74.0941 0.6177,0 899.1438,-409.6705 902.4392,-411.375 l 2.2657,-1.3455 -0.2061,-61.9844 -0.3087,-61.9842 -440.252,-200.8437 c -242.1124,-110.4236 -445.7095,-203.1758 -452.3003,-206.2255 l -12.1521,-5.3822 z"
       id="path157756"
       style="stroke-width:0.0961137" />
  </g>
</svg>
