<?xml version="1.0" encoding="UTF-8" standalone="no"?>
<!-- Created with Inkscape (http://www.inkscape.org/) -->

<svg
   width="3840px"
   height="3840px"
   viewBox="0 0 3840 3840"
   version="1.1"
   id="SVGRoot"
   sodipodi:docname="astralhive_logo.svg"
   inkscape:version="1.1.2 (0a00cf5339, 2022-02-04)"
   xmlns:inkscape="http://www.inkscape.org/namespaces/inkscape"
   xmlns:sodipodi="http://sodipodi.sourceforge.net/DTD/sodipodi-0.dtd"
   xmlns="http://www.w3.org/2000/svg"
   xmlns:svg="http://www.w3.org/2000/svg">

  <g
     inkscape:label="Layer 1"
     inkscape:groupmode="layer"
     id="layer1">
    <g
       transform="matrix(0.10295041,0,0,-0.08969742,0.16055983,3839.9514)"
       fill="#000000"
       stroke="none"
       id="g157766">
      <path
         d="m 18450,42790 c -41,-11 -106,-35 -145,-54 C 18204,42689 395,32405 335,32360 188,32250 81,32094 23,31905 6,31847 5,31478 2,21460 0,13808 2,11054 10,10995 42,10771 173,10563 363,10437 449,10379 18108,182 18265,99 c 138,-73 222,-93 385,-93 110,0 150,4 213,22 102,29 141,49 527,272 179,103 847,489 1485,857 638,369 4495,2595 8570,4947 4076,2353 7447,4302 7492,4333 183,122 310,318 348,539 14,80 15,1184 13,10474 l -3,10385 -28,88 c -33,105 -65,171 -122,252 -55,78 -165,182 -241,227 -150,91 -17840,10301 -17891,10327 -114,57 -185,73 -343,77 -122,4 -157,1 -220,-16 z m 8700,-6657 8500,-4908 -2,-9819 -3,-9819 -8485,-4900 C 22057,3739 18665,1786 18650,1786 c -15,0 -3371,1933 -8510,4900 l -8485,4901 -3,9819 -2,9819 742,429 c 409,236 1112,642 1563,902 451,261 3941,2276 7755,4478 3814,2203 6936,4005 6938,4005 1,1 3827,-2207 8502,-4906 z"
         id="path157758" />
      <path
         d="m 11265,30030 c -247,-4 -732,-8 -1077,-9 l -627,-1 -801,-385 c -441,-212 -1129,-541 -1528,-732 -400,-190 -730,-349 -734,-352 -4,-4 -89,-238 -189,-521 -99,-283 -399,-1134 -666,-1890 -783,-2220 -1585,-4508 -2123,-6055 -153,-440 -362,-1040 -465,-1333 l -186,-533 21,-42 c 102,-209 920,-1164 2130,-2487 113,-124 363,-398 554,-610 289,-319 354,-386 378,-388 67,-7 285,86 798,343 593,296 911,463 3895,2040 1152,609 1605,847 2100,1105 72,37 328,167 570,287 l 440,220 4785,6 4785,6 485,-253 c 267,-140 688,-358 935,-486 521,-270 1567,-815 3320,-1730 1795,-937 1939,-1012 2380,-1235 397,-200 587,-288 656,-300 31,-6 42,-2 90,35 72,56 673,660 930,935 210,225 769,835 1234,1345 719,790 884,1000 902,1147 12,105 -43,296 -322,1113 -460,1346 -1065,3062 -2439,6915 l -835,2340 -178,83 c -1901,890 -2641,1253 -2739,1343 -72,66 -550,89 -1894,89 h -946 l -154,-337 c -199,-437 -681,-1487 -685,-1491 -7,-8 -5893,-32 -7765,-32 -2387,0 -2907,9 -3147,55 -111,21 -126,32 -163,122 -141,343 -317,737 -598,1338 l -159,340 -259,1 c -142,0 -461,-3 -709,-6 z m 15497,-2916 c 104,-37 324,-151 471,-243 124,-77 685,-459 720,-489 15,-14 17,-38 17,-241 -1,-473 -35,-650 -166,-854 -129,-201 -449,-434 -805,-585 -180,-77 -224,-87 -374,-86 -114,0 -140,4 -215,28 -102,34 -249,102 -391,181 -79,44 -647,390 -655,398 -1,1 -9,171 -18,377 -9,206 -18,414 -21,462 -11,196 20,344 90,426 87,103 559,412 788,516 296,134 422,159 559,110 z M 10844,26005 c 291,-8 531,-16 533,-19 2,-2 16,-446 30,-987 21,-776 29,-986 39,-995 9,-7 125,-13 331,-17 1071,-20 1904,-39 1941,-43 l 42,-5 v -848 -849 l -172,-6 c -95,-3 -616,-16 -1158,-27 -542,-12 -987,-25 -990,-30 -3,-4 -16,-412 -28,-906 -13,-494 -26,-958 -29,-1030 l -6,-133 h -957 -957 l -6,198 c -4,108 -16,575 -28,1037 -12,462 -22,841 -23,841 -1,1 -446,11 -991,23 -544,11 -1065,24 -1157,27 l -168,6 v 849 848 l 33,5 c 17,3 167,7 332,10 704,11 1922,38 1944,42 l 24,5 -8,988 c -7,960 -7,989 11,994 123,37 617,44 1418,22 z m 6414,-1043 c 256,-128 512,-374 615,-592 27,-56 31,-76 32,-150 0,-76 -4,-93 -33,-154 -94,-199 -343,-449 -542,-545 -65,-31 -87,-36 -160,-39 -376,-15 -810,337 -871,708 -30,180 51,342 261,526 90,78 254,190 336,229 162,78 235,81 362,17 z m 2970,-18 c 157,-32 278,-101 418,-239 114,-112 208,-234 243,-316 15,-33 26,-82 29,-124 4,-60 0,-84 -26,-158 -81,-237 -261,-448 -466,-547 -118,-57 -197,-73 -336,-67 -204,8 -359,78 -522,235 -112,108 -170,184 -222,292 -41,85 -41,86 -41,201 v 116 l 42,84 c 54,107 121,195 223,292 209,201 430,278 658,231 z m 9194,-468 c 159,-30 294,-101 520,-272 300,-228 484,-420 539,-563 39,-105 48,-395 19,-676 -32,-308 -134,-441 -546,-715 -594,-394 -886,-396 -1500,-8 -409,257 -520,390 -564,672 -14,88 -14,526 0,612 26,162 84,253 263,414 353,316 618,471 912,534 91,19 263,20 357,2 z m -5072,-34 c 552,-160 908,-454 1039,-860 49,-151 56,-209 56,-457 0,-244 -6,-290 -52,-395 -64,-146 -253,-336 -498,-501 -182,-123 -347,-199 -609,-284 -127,-41 -237,-75 -245,-75 -15,0 -205,116 -777,477 l -371,234 -7,162 c -4,89 -11,248 -16,352 -32,686 112,942 693,1230 251,125 364,156 552,151 108,-3 148,-9 235,-34 z m -7110,-1877 c 80,-25 173,-59 208,-76 249,-122 462,-442 462,-695 0,-63 -5,-80 -44,-160 -61,-124 -134,-224 -236,-324 -91,-90 -160,-136 -260,-177 -315,-127 -667,-19 -885,271 -110,146 -157,276 -156,432 0,256 142,485 396,642 71,43 297,131 340,132 17,0 95,-20 175,-45 z m 3118,-45 c 141,-40 258,-114 368,-234 191,-207 247,-432 159,-647 -74,-183 -290,-396 -491,-485 -205,-90 -438,-86 -624,12 -215,113 -396,365 -431,599 -51,340 226,677 631,766 110,25 281,20 388,-11 z m 6392,-702 c 91,-29 351,-138 462,-194 363,-182 590,-428 692,-752 46,-145 59,-257 59,-477 -1,-330 -32,-407 -224,-566 -226,-188 -727,-488 -924,-554 -71,-23 -170,-21 -252,5 -87,29 -553,252 -691,331 -336,193 -460,333 -525,587 -20,79 -22,112 -22,367 0,305 5,341 57,454 36,77 201,252 350,371 314,253 770,477 923,453 17,-2 59,-14 95,-25 z"
         id="path157760" />
    </g>
  </g>
</svg>
