<?xml version="1.0" encoding="UTF-8" standalone="no"?>
<!-- Created with Inkscape (http://www.inkscape.org/) -->

<svg
   width="209.37482mm"
   height="238.63034mm"
   viewBox="0 0 209.37482 238.63034"
   version="1.1"
   id="svg4345"
   sodipodi:docname="game_semi_trans.svg"
   inkscape:version="1.1.2 (0a00cf5339, 2022-02-04)"
   xmlns:inkscape="http://www.inkscape.org/namespaces/inkscape"
   xmlns:sodipodi="http://sodipodi.sourceforge.net/DTD/sodipodi-0.dtd"
   xmlns="http://www.w3.org/2000/svg"
   xmlns:svg="http://www.w3.org/2000/svg">
  <sodipodi:namedview
     id="namedview4347"
     pagecolor="#505050"
     bordercolor="#eeeeee"
     borderopacity="1"
     inkscape:pageshadow="0"
     inkscape:pageopacity="0"
     inkscape:pagecheckerboard="0"
     inkscape:document-units="mm"
     showgrid="false"
     inkscape:zoom="1.1474186"
     inkscape:cx="383.0337"
     inkscape:cy="500.25334"
     inkscape:window-width="1708"
     inkscape:window-height="1283"
     inkscape:window-x="3368"
     inkscape:window-y="770"
     inkscape:window-maximized="0"
     inkscape:current-layer="layer1"
     fit-margin-top="0"
     fit-margin-left="0"
     fit-margin-right="0"
     fit-margin-bottom="0" />
  <defs
     id="defs4342">
    <rect
       x="5500"
       y="100"
       width="3800"
       height="4200"
       id="rect66165" />
  </defs>
  <g
     inkscape:label="Layer 1"
     inkscape:groupmode="layer"
     id="layer1"
     transform="translate(-0.31822949,-0.09282001)">
    <path
       sodipodi:type="star"
       style="fill:#000000;fill-opacity:0.359599;stroke:#000000;stroke-width:200.003;stroke-linejoin:round;stroke-miterlimit:4;stroke-dasharray:none;stroke-opacity:1"
       id="path61"
       inkscape:flatsided="true"
       sodipodi:sides="6"
       sodipodi:cx="4500"
       sodipodi:cy="4500"
       sodipodi:r1="2500"
       sodipodi:r2="2165.0635"
       sodipodi:arg1="-1.5707963"
       sodipodi:arg2="-1.0471976"
       inkscape:rounded="0"
       inkscape:randomized="0"
       transform="matrix(0.04616536,0,0,0.04585674,-102.73004,-86.867831)"
       inkscape:transform-center-x="2.3406789e-05"
       inkscape:transform-center-y="-9.3468741e-06"
       inkscape:export-filename="/home/asad/Pictures/path61.png"
       inkscape:export-xdpi="96"
       inkscape:export-ydpi="96"
       d="m 4500.0001,2000 2165.0634,1250.0001 0,2500 L 4499.9999,7000 2334.9365,5749.9999 l 0,-2500 z" />
    <path
       d="m 45.453926,75.626273 -8.608006,4.084604 -3.279195,9.26145 C 29.109012,101.46342 21.525784,122.97856 18.91267,130.48272 c -1.178479,3.37213 -2.254479,6.41181 -2.356936,6.69677 -0.204982,0.52242 4.713892,6.22181 14.090414,16.38569 1.537161,1.70981 2.920577,3.18215 2.971797,3.27712 0.358638,0.47497 3.894073,-1.32983 24.74792,-12.30108 5.789912,-3.03969 12.450842,-6.55431 14.859059,-7.74168 l 4.355193,-2.18474 H 104.4288 l 26.79741,-0.0477 4.91888,2.56471 c 2.76683,1.37735 10.86243,5.6044 18.03572,9.30899 18.18949,9.45145 20.13651,10.44882 20.80266,10.44882 0.35861,0 3.79157,-3.46711 7.68564,-7.6941 10.5038,-11.39877 10.09389,-10.82883 9.73522,-12.63365 -0.10246,-0.85489 -4.71391,-13.96345 -10.1451,-29.16178 l -9.88893,-27.54694 -8.04433,-3.752095 c -4.40649,-2.042281 -8.14688,-3.942082 -8.3518,-4.227041 -0.20498,-0.284959 -3.27926,-0.474945 -8.09559,-0.474945 h -7.78819 l -2.35697,5.129446 -2.35694,5.081937 -30.84521,0.142478 C 75.530557,81.847939 73.686,81.800474 73.378602,81.040574 73.224924,80.56563 72.200103,78.190883 71.072864,75.768629 l -2.049516,-4.36952 -7.53199,0.09499 -7.480726,0.04749 z m 108.675674,14.058472 3.12552,2.137253 v 2.564711 c 0,3.03968 -1.22973,4.702008 -4.76516,6.459311 -2.61312,1.28235 -3.63789,1.13989 -7.27579,-1.044886 l -2.56189,-1.567356 -0.15372,-3.372123 c -0.15368,-3.324636 -0.10247,-3.372122 1.53717,-4.559486 2.40818,-1.709814 4.61139,-2.707212 5.84111,-2.754698 0.61486,0 2.51067,0.94989 4.25276,2.137274 z m -89.717643,9.831431 0.153677,5.556854 6.50723,0.14252 6.507253,0.14247 v 4.74947 4.74944 l -6.507253,0.14254 -6.50723,0.14247 -0.153677,5.79434 -0.153742,5.7944 h -5.37995 -5.379991 l -0.15372,-5.7944 -0.153699,-5.79434 -6.507252,-0.14247 -6.507189,-0.14254 v -4.74944 -4.74947 l 6.55845,-0.14247 6.558451,-0.14252 -0.05122,-5.319402 c -0.05125,-2.944685 -0.05125,-5.509397 -0.05125,-5.699383 0.05125,-0.189967 2.510657,-0.28496 5.584952,-0.237473 l 5.482409,0.1425 z M 99.151278,101.036 c 1.076002,0.99737 1.742092,2.08977 1.742092,2.80217 0,1.42486 -2.715626,4.13204 -4.150283,4.13204 -2.818074,0 -5.584931,-2.99217 -4.816373,-5.1769 0.409917,-1.28236 3.176749,-3.372127 4.457731,-3.372127 0.563576,0 1.793299,0.712397 2.766833,1.614817 z m 17.369692,0.37995 c 1.43462,1.56733 1.53708,2.32722 0.71729,3.84708 -1.63961,2.99214 -4.86761,3.51462 -7.17332,1.23484 -1.74206,-1.75728 -1.89577,-3.18211 -0.4099,-4.89193 2.10081,-2.469736 4.76512,-2.517223 6.86593,-0.18999 z m 22.08352,1.75731 c 3.02304,1.28235 4.56016,3.46714 4.56016,6.55428 0,2.13725 -0.20493,2.6597 -1.74205,4.13203 -0.97354,0.9024 -2.76688,1.99479 -3.99656,2.37474 l -2.20328,0.71243 -3.22797,-1.9948 -3.17673,-1.99476 -0.15374,-3.13467 c -0.15374,-3.56207 0.66612,-4.98693 3.89413,-6.60174 2.35692,-1.13985 3.43289,-1.13985 6.04604,-0.0476 z m 28.02713,-0.37995 c 0.61487,0.28496 1.9983,1.28235 3.07432,2.23224 1.69082,1.56731 1.89583,1.94727 1.84456,4.13205 -0.0512,3.22964 -0.35868,3.79958 -3.22803,5.69933 -3.02301,1.99481 -4.71389,2.08981 -7.5319,0.47498 -3.5867,-2.13727 -4.04787,-2.80219 -4.04787,-5.84184 0,-2.46972 0.15374,-2.89721 1.69085,-4.22704 3.02308,-2.7547 5.84117,-3.60962 8.19807,-2.46972 z m -68.863757,10.44884 c 1.639598,0.52243 3.125507,2.46973 3.125507,4.17952 0,0.52243 -0.61487,1.56734 -1.332168,2.37476 -2.152015,2.37476 -5.533713,1.89981 -7.122112,-0.94991 -1.178459,-2.08977 0,-4.702 2.561915,-5.69938 0.563598,-0.18996 1.024757,-0.37995 1.075982,-0.37995 0.05127,-0.0473 0.768575,0.18999 1.690876,0.47496 z m 18.753107,1.18736 c 1.74204,1.75732 1.69081,3.70458 -0.20499,5.46189 -2.4082,2.1848 -5.43124,1.75731 -6.96834,-1.04488 -2.30574,-4.03707 3.84285,-7.78914 7.17333,-4.41701 z m 36.1227,3.65708 c 3.12552,1.42485 4.61145,3.60965 4.61145,6.79176 0,2.32727 -0.15373,2.56472 -1.89581,3.89458 -1.07599,0.75991 -2.71564,1.75728 -3.58668,2.18475 -1.63959,0.75991 -1.79331,0.75991 -4.30399,-0.47496 -4.20149,-1.94724 -5.07255,-2.99213 -5.07255,-6.17432 0,-2.4697 0.15371,-2.80215 1.89581,-4.3695 1.79334,-1.56731 4.40648,-2.89718 5.53371,-2.89718 0.30743,0 1.53713,0.47495 2.81806,1.04487 z"
       id="path7355"
       style="stroke-width:0.0493306"
       inkscape:export-filename="/home/asad/Pictures/path61.png"
       inkscape:export-xdpi="96"
       inkscape:export-ydpi="96" />
  </g>
</svg>
