<?xml version="1.0" encoding="UTF-8" standalone="no"?>
<!-- Created with Inkscape (http://www.inkscape.org/) -->

<svg
   width="3840px"
   height="3840px"
   viewBox="0 0 3840 3840"
   version="1.1"
   id="SVGRoot"
   sodipodi:docname="astralhive_logo.svg"
   inkscape:version="1.1.2 (0a00cf5339, 2022-02-04)"
   xmlns:inkscape="http://www.inkscape.org/namespaces/inkscape"
   xmlns:sodipodi="http://sodipodi.sourceforge.net/DTD/sodipodi-0.dtd"
   xmlns="http://www.w3.org/2000/svg"
   xmlns:svg="http://www.w3.org/2000/svg">
  <sodipodi:namedview
     id="namedview157722"
     pagecolor="#505050"
     bordercolor="#eeeeee"
     borderopacity="1"
     inkscape:pageshadow="0"
     inkscape:pageopacity="0"
     inkscape:pagecheckerboard="0"
     inkscape:document-units="px"
     showgrid="false"
     inkscape:zoom="0.20283687"
     inkscape:cx="5225.8743"
     inkscape:cy="2553.7763"
     inkscape:window-width="3424"
     inkscape:window-height="1259"
     inkscape:window-x="3368"
     inkscape:window-y="693"
     inkscape:window-maximized="0"
     inkscape:current-layer="layer1" />
  <defs
     id="defs157717" />
  <g
     inkscape:label="Layer 1"
     inkscape:groupmode="layer"
     id="layer1">
    <g
       id="g158838"
       transform="matrix(2.0053689,0,0,1.7579303,-14450.595,-3414.9439)">
      <path
         d="m 8155.3829,1943.2896 c -3.2346,0.6123 -7.0853,1.9391 -10.0632,3.4189 -1.3863,0.6634 -42.8715,24.392 -92.1608,52.6621 -371.2102,212.9958 -817.7921,469.2133 -823.2858,472.4282 -12.2196,7.1441 -18.4321,14.5943 -22.1802,26.4841 l -1.4376,4.4906 -0.154,529.938 c -0.1027,474.0611 -0.051,530.3973 0.6674,534.4797 1.8484,10.7161 8.6257,21.3812 17.2,27.1985 4.1074,2.7556 918.6812,527.3866 922.3779,529.1216 6.0584,2.8066 9.4471,3.47 17.1999,3.47 7.8555,0 12.3737,-0.9696 18.4321,-3.9803 6.6233,-3.3169 919.9135,-527.5907 922.5833,-529.6319 8.4203,-6.3786 14.5301,-16.7375 16.019,-27.1475 0.4108,-3.0107 0.5135,-143.5451 0.4108,-534.0204 -0.1541,-508.3016 -0.2054,-530.0401 -1.0782,-532.9997 -0.5135,-1.684 -2.0538,-5.3581 -3.44,-8.1647 -3.7994,-7.7054 -9.0364,-13.2166 -17.1999,-18.0643 -12.8871,-7.7055 -914.9845,-525.0903 -917.9624,-526.4681 -5.8018,-2.7556 -10.8334,-3.7762 -17.7134,-3.7251 -3.2859,0.051 -6.9826,0.2551 -8.2149,0.5103 z m 444.6308,340.1605 436.3646,250.4002 -0.1027,501.1065 -0.154,501.1066 -435.9025,250.196 c -239.7207,137.5747 -436.1592,250.1451 -436.5186,250.1961 -0.4107,0 -559.5366,-320.5653 -795.2012,-455.9457 -8.4716,-4.8988 -29.3682,-16.8907 -46.4654,-26.6883 l -31.0626,-17.8092 -0.1026,-501.0555 -0.1541,-501.0555 40.4583,-23.1673 c 82.8164,-47.5591 138.9343,-79.7586 481.4438,-276.323 192.8959,-110.7333 350.7757,-201.3101 350.8784,-201.3101 0.051,-0.051 196.5412,112.6214 436.5186,250.3492 z"
         id="path157762"
         style="stroke-width:0.0511859" />
      <path
         d="m 8233.8865,2282.4295 c 0,159.5172 -0.8729,238.9696 -2.6185,239.9902 -1.797,1.1227 -10.5254,-2.4494 -32.5515,-13.4206 -19.8698,-9.8487 -29.8817,-14.0841 -36.5563,-15.4109 -4.0561,-0.8164 -20.2291,4.7458 -39.4314,13.5228 -19.3564,8.828 -29.4196,12.247 -34.708,11.7877 -1.0782,-0.051 -1.3349,-1.4288 -2.0023,-9.7466 -1.6943,-21.5343 -2.5158,-71.4408 -3.0806,-187.0219 -0.2567,-53.6317 -0.7188,-106.2938 -1.0269,-117.112 -0.6161,-23.1162 -1.3862,-38.3229 -2.105,-39.0373 -0.9242,-0.9185 -16.7379,7.3992 -52.1646,27.6578 l -20.1778,11.4816 v 183.8071 183.8071 l -21.41,11.8388 c -28.7522,15.819 -44.8739,23.4224 -48.7246,22.9631 -1.3863,-0.1531 -1.489,-0.3062 -1.8484,-3.2148 -0.5134,-4.6437 -1.3862,-26.7393 -1.951,-49.4983 -0.308,-11.2265 -0.7188,-62.6639 -1.0268,-114.3054 -0.6675,-135.5845 -1.643,-188.3487 -3.44,-190.1347 -1.0269,-0.9696 -16.5838,7.1951 -49.4434,25.9738 l -22.3342,12.7063 -0.154,183.9092 -0.1027,183.9091 -15.557,8.4198 c -27.9306,15.1047 -57.9149,31.9443 -81.4814,45.8242 -19.9724,11.7878 -35.7348,19.3911 -39.1234,18.8808 -1.4376,-0.2041 -1.7457,-1.4288 -2.4131,-9.4914 -2.1564,-26.1269 -3.1833,-80.422 -4.4155,-231.2132 -0.3594,-48.886 -0.7702,-89.0459 -0.8729,-89.097 -0.1026,-0.102 -0.8214,49.9066 -1.5916,111.1416 -1.5403,119.2042 -2.1051,151.1484 -2.9265,177.6836 -1.2836,40.6703 -2.9779,53.9889 -6.88,54.7543 -3.9021,0.7655 -5.6478,-8.9301 -6.9827,-38.6801 -1.1809,-26.3821 -1.6943,-56.9486 -3.8507,-218.609 -0.7188,-52.458 -1.3863,-95.4756 -1.4889,-95.6287 -0.1541,-0.1021 -2.4645,1.0716 -5.1344,2.6535 l -4.9289,2.9087 0.1027,320.2081 0.154,320.2591 14.8382,9.5935 c 8.1122,5.307 15.0435,9.8486 15.3515,10.1548 0.4108,0.4082 1.0269,20.5648 2.0024,66.2869 1.2836,61.0819 1.4376,65.7256 2.3105,66.338 0.462,0.3572 17.0972,9.7465 36.8643,20.8709 92.1607,51.8456 107.8204,61.3881 118.1403,72.2063 4.8776,5.1029 6.5719,8.6239 6.5719,13.4717 0,3.2659 -0.2053,4.1333 -2.1564,8.0116 -2.5671,5.1539 -5.5964,9.1342 -15.0948,19.9013 -15.1462,17.1458 -22.7963,29.7501 -28.6494,47.2531 -4.5696,13.7778 -6.3152,24.596 -6.3666,39.5986 0,17.401 2.5672,31.536 8.7797,48.7329 6.2638,17.3499 15.3002,32.6076 30.7545,51.7946 22.4882,28.015 71.8802,100.7316 133.5946,196.7175 26.4416,41.1295 35.7861,55.4687 58.6337,89.8113 12.0143,18.1154 24.4393,36.7921 27.5713,41.5888 4.6208,6.991 6.0071,8.726 7.188,9.0322 1.1809,0.3062 7.6501,8.6239 34.8106,44.7526 18.3808,24.443 33.4756,44.3954 33.6297,44.3954 0.154,0 15.5056,-19.9524 34.1431,-44.3954 23.5151,-30.8216 34.2458,-44.4975 35.0673,-44.7016 1.3349,-0.3062 2.5672,-1.9391 11.1928,-14.4412 7.7014,-11.1754 18.3808,-27.4027 34.2458,-52.0498 6.7773,-10.512 16.9946,-26.28 22.6936,-34.955 5.6991,-8.726 19.151,-29.3928 29.8817,-45.9263 10.7307,-16.5844 26.7497,-41.2315 35.6834,-54.8563 8.8824,-13.6248 23.6178,-36.2307 32.7569,-50.2638 30.4464,-46.8448 44.8738,-67.9198 54.5263,-79.7586 1.7457,-2.1942 6.7259,-7.5013 10.9874,-11.8898 5.5964,-5.7663 8.8824,-9.6445 11.6549,-13.7779 10.782,-16.1252 17.5593,-36.5879 20.1265,-60.8778 3.594,-34.4447 -0.8729,-60.1123 -14.4274,-82.4631 -3.9021,-6.4297 -8.523,-12.5532 -15.865,-20.922 -7.1881,-8.2157 -11.6036,-14.6964 -13.1952,-19.34 -1.489,-4.3375 -1.5916,-12.9104 -0.2054,-17.6561 3.1833,-10.6141 9.8579,-15.3088 78.8629,-55.4688 32.1921,-18.7277 41.0745,-24.0347 48.7759,-29.1376 22.0262,-14.6454 28.4441,-23.8306 30.2411,-43.5789 0.3594,-3.9803 0.5648,-23.5755 0.5648,-55.1626 v -48.988 l 9.6525,-6.2766 c 5.2883,-3.4189 13.9139,-9.0832 19.2536,-12.5532 l 9.6012,-6.3276 -0.1027,-315.6155 -0.1541,-315.6665 -8.1635,-4.5416 c -4.5182,-2.5004 -8.3689,-4.5416 -8.6256,-4.5416 -0.2054,0 -0.4108,2.7046 -0.4108,5.9705 0,8.5729 -2.4131,189.9306 -3.0806,229.7843 -1.5403,94.6592 -3.1319,116.8569 -8.4716,116.8569 -4.3641,0 -6.0584,-13.5738 -7.4447,-59.449 -0.7188,-25.3615 -1.3863,-65.7766 -2.8239,-179.1124 -0.7188,-55.5708 -1.3349,-103.13 -1.4376,-105.6304 -0.154,-5.9194 -0.7701,53.0703 -1.3862,135.9927 -0.7702,97.976 -1.643,147.8826 -3.132,176.0507 -0.5134,9.9507 -1.2322,17.2479 -1.7456,17.8092 -1.797,1.735 -67.3621,-33.169 -106.5369,-56.7445 -11.7575,-7.093 -16.1217,-9.9507 -24.2339,-15.768 l -7.0853,-5.1029 -0.1027,-182.1742 -0.154,-182.1742 -13.6059,-7.6543 c -27.3146,-15.3598 -51.9079,-27.964 -54.5264,-27.964 -5.8531,0 -6.3665,12.7062 -6.7773,162.0176 -0.154,53.0193 -0.5134,107.5695 -0.8214,121.1943 -0.8729,42.6094 -2.1051,65.4705 -3.5941,67.8688 -1.3349,2.1433 -11.1414,-0.9185 -24.7473,-7.7054 -4.8262,-2.3983 -39.1234,-21.075 -39.8936,-21.6874 -0.2053,-0.1531 -2.7725,-139.3607 -3.594,-197.4319 -1.6943,-110.6823 -1.8997,-120.4288 -3.1319,-136.503 -1.5403,-19.7483 -4.2615,-31.434 -9.0364,-38.5781 -4.1074,-6.1745 -9.5498,-10.0527 -25.6202,-18.3195 -4.7749,-2.5004 -15.3002,-8.2157 -23.361,-12.7573 -8.0609,-4.5416 -15.1462,-8.5218 -15.7624,-8.879 l -1.1808,-0.6124 z m -45.1819,306.7364 c 64.7436,35.1591 192.2284,107.5695 260.9767,148.1887 40.3043,23.8307 124.969,72.9718 151.8214,88.1785 6.0585,3.4189 11.9116,7.042 12.9898,8.0626 4.3128,4.1844 5.0829,9.0321 5.4423,36.0776 0.5648,40.9254 -0.6674,77.7174 -2.7725,79.7586 -0.154,0.2041 -1.3349,0.3062 -2.5158,0.2552 -6.5206,-0.2552 -20.4859,-7.1952 -54.9884,-27.3517 -37.3777,-21.8915 -154.5426,-88.6377 -254.9182,-145.2801 -51.7538,-29.1887 -73.4719,-41.3846 -83.9459,-47.0489 -26.185,-14.1861 -51.4971,-26.8923 -58.6851,-29.4948 l -3.286,-1.1737 -3.44,1.0716 c -4.6208,1.4799 -19.2536,8.726 -28.29,13.982 -26.2363,15.3088 -120.5021,68.7363 -283.4136,160.6399 -31.4733,17.7581 -71.983,40.6702 -90.0557,50.8761 -41.9473,23.7796 -44.7198,25.1573 -50.3162,25.1573 -3.5427,0 -5.4937,-1.2757 -7.1881,-4.6946 -2.2077,-4.5927 -2.9265,-10.41 -3.2346,-26.178 -0.2567,-12.5532 1.1296,-80.1669 1.643,-81.6977 0.1027,-0.3572 2.3105,-1.8371 4.9803,-3.3169 2.6185,-1.4799 10.6793,-6.1235 17.8674,-10.3079 7.188,-4.1844 17.816,-10.41 23.6178,-13.7779 36.2482,-21.075 103.867,-59.7041 140.9366,-80.473 32.1921,-18.0643 76.5012,-43.1707 109.3607,-62.0005 56.6828,-32.4545 147.0465,-83.2286 158.1366,-88.8418 11.1928,-5.6642 11.2955,-5.7152 12.8358,-4.9498 0.8215,0.4593 12.7331,6.8889 26.4417,14.3392 z m -19.8698,222.028 c 13.2979,6.8379 40.8691,22.2487 64.7949,36.2817 33.0136,19.289 60.7902,35.3632 130.4114,75.268 62.6899,35.9246 76.2958,43.8341 102.07,59.0918 l 22.4369,13.3187 v 31.1788 c -0.051,39.9558 -0.7702,72.5124 -1.797,81.1364 -2.1564,18.4725 -6.2125,20.7689 -18.2268,10.2058 -24.388,-21.4322 -101.0945,-67.2564 -139.9098,-83.5858 -43.693,-18.3705 -86.4104,-28.2701 -140.68,-32.6076 -10.7307,-0.8675 -51.5997,-0.8675 -62.3818,0 -40.8177,3.2658 -73.8313,9.6445 -107.307,20.8709 -22.6422,7.5523 -47.6463,18.8808 -75.2175,34.1385 -32.9623,18.2174 -59.6606,35.7715 -81.3788,53.5807 -6.3152,5.1539 -14.068,10.3589 -18.3294,12.298 -2.9779,1.3778 -4.4155,1.4798 -11.4495,1.0716 -2.2591,-0.1531 -2.3105,-0.102 -2.4645,1.5309 -0.1027,0.9185 0.2054,3.2659 0.6161,5.205 1.5403,6.5827 0.7702,10.7671 -2.0537,11.4305 -3.3886,0.8675 -11.2441,-5.4601 -13.8113,-11.0223 -3.0292,-6.6848 -4.1074,-21.5343 -3.6453,-49.6514 0.6674,-37.2513 1.6943,-58.7856 3.1832,-66.0828 1.3863,-6.5827 2.7726,-8.1647 7.2907,-8.1647 4.0561,0 6.9314,-1.837 7.5988,-4.7967 0.5134,-2.4494 2.4131,-4.5926 7.5474,-8.5729 8.2149,-6.3276 18.4322,-12.6552 43.4876,-26.9434 89.3883,-50.9782 191.869,-110.6823 202.8051,-118.1326 12.425,-8.5218 74.242,-41.0784 77.9387,-41.0784 0.3594,0 4.1588,1.786 8.4716,4.0313 z m 333.8839,196.2072 c 4.3641,2.0411 5.699,4.6436 7.1366,14.033 1.489,9.5935 1.8997,23.6775 1.643,53.8868 -0.308,35.3632 -0.7701,40.4151 -4.7235,49.039 -3.9021,8.5729 -12.8358,17.5541 -17.354,17.5541 -3.44,0 -4.0047,-5.0519 -1.4376,-13.3186 3.3373,-10.8182 4.4669,-26.178 5.1857,-71.0837 0.5647,-36.2307 1.3862,-48.1715 3.4399,-50.4678 1.1296,-1.1737 2.9779,-1.0717 6.1099,0.3572 z m -325.823,72.7676 c 29.1628,1.3778 49.0326,4.1844 74.4474,10.512 24.6447,6.1235 45.2332,13.4717 63.8194,22.708 16.3271,8.1136 23.8745,13.2676 39.4828,26.8923 l 10.9361,9.5425 v 40.8233 c -0.051,40.8744 -0.4108,52.1519 -2.0537,64.705 -0.8729,6.5828 -1.489,8.0627 -3.6967,8.675 -2.3105,0.6634 -4.0048,0.1021 -5.5451,-1.9391 -4.5182,-5.8684 -6.9313,-22.708 -7.9582,-55.1115 -1.3862,-44.7016 -1.8483,-52.509 -3.3886,-58.6836 -1.489,-5.7152 -3.4913,-7.1951 -10.474,-7.7564 -3.9534,-0.3062 -4.0561,-0.2552 -5.545,1.2247 -1.0269,0.9695 -1.7457,2.3984 -2.1564,4.2354 -0.8729,3.9803 -1.489,24.2389 -1.5403,49.6004 0,43.5789 -1.643,50.9271 -11.2955,50.9271 -12.0143,0 -37.9425,-8.1647 -42.3067,-13.2676 -0.7188,-0.8675 -1.3349,-1.786 -1.3349,-1.9391 0,-0.2041 -0.2054,-1.735 -0.5134,-3.419 -1.2323,-7.8074 -2.9266,-30.2092 -4.3642,-59.1938 -1.4376,-28.6274 -3.3373,-45.6711 -5.9558,-54.0399 -1.1295,-3.6741 -2.0024,-4.5416 -6.88,-6.7359 -4.5181,-2.0922 -6.9313,-1.2247 -8.7283,3.0108 -2.2077,5.307 -3.2859,23.2693 -3.3373,55.4687 0,27.7088 -1.1295,51.6415 -2.6185,57.2547 -0.4621,1.8371 -0.5647,1.8881 -3.44,2.2453 -8.831,1.0716 -89.3369,-1.5819 -116.9081,-3.8782 -15.8136,-1.3268 -24.6446,-3.3679 -25.6202,-5.9704 -0.4107,-1.0206 -1.0782,-24.1368 -1.8483,-65.9808 -0.5134,-28.066 -0.9242,-34.5977 -2.4645,-38.7311 -1.2835,-3.2659 -2.8752,-4.2865 -6.9826,-4.2865 -4.1075,0 -5.6478,0.9186 -6.9827,3.8783 -1.8483,4.1844 -2.105,9.4404 -2.5671,51.8966 -0.5135,46.5897 -0.9242,53.7848 -3.6454,61.8984 -3.2346,9.4915 -8.8823,12.7063 -25.1067,14.1351 -7.2394,0.6124 -25.2095,1.633 -25.4149,1.4288 -0.1026,-0.102 -0.5134,-14.7474 -0.9755,-32.5566 -1.2322,-46.8958 -1.8483,-58.1222 -3.748,-64.807 -2.2591,-8.1137 -5.5451,-8.7771 -16.8405,-3.2659 -8.5743,4.1844 -12.6818,8.0626 -14.6328,13.7268 -2.3104,6.6849 -2.8752,14.4413 -3.594,48.7329 -0.5134,24.6981 -1.0782,36.2307 -2.3618,47.6613 -0.8215,7.2971 -1.4376,9.3893 -3.3373,10.7161 -5.8018,4.0313 -8.6256,-16.9417 -9.4985,-70.3692 -0.462,-29.1377 0.5135,-38.8843 4.5696,-45.6201 2.4131,-4.0313 9.139,-10.9203 14.7354,-15.0536 20.6399,-15.3088 62.3818,-34.0365 92.6742,-41.5378 16.6352,-4.1334 40.2016,-7.0931 63.152,-7.9095 10.5253,-0.4083 31.884,-0.3062 41.8446,0.1531 z m -224.1124,84.8615 c 1.3862,3.2659 1.8996,9.5425 2.1564,26.6372 0.308,17.452 -0.4621,46.2835 -1.4376,57.663 -1.335,15.0536 -3.7994,20.5137 -8.4716,18.8298 -4.3642,-1.5309 -5.8532,-9.4404 -6.9314,-36.588 -1.1808,-30.1582 0.9756,-52.3049 6.2126,-62.5617 1.797,-3.5721 4.1074,-5.6643 6.2125,-5.6643 1.2322,0 1.6943,0.3062 2.2591,1.684 z m 423.5288,3.7251 c 2.1564,0.8165 3.902,6.5828 4.9289,16.2783 0.8728,8.2668 1.2322,43.0176 0.5648,55.877 -0.8728,16.5845 -2.2591,25.8208 -4.0561,26.4331 -1.7457,0.5613 -3.6967,-9.2363 -4.929,-24.3919 -1.3349,-15.8191 -2.0537,-46.7428 -1.3862,-58.5305 0.5648,-10.7161 1.0782,-13.4207 2.6698,-15.0026 1.0782,-1.0716 1.0782,-1.0716 2.2078,-0.6634 z m -187.8642,145.127 c 43.0254,1.9391 67.9268,5.307 92.4174,12.5022 28.4441,8.3177 52.6267,18.0133 67.5162,27.0454 34.5025,20.8199 68.3889,58.3264 68.2862,75.5232 -0.051,4.3375 -3.44,8.5219 -6.2125,7.6544 -1.951,-0.6634 -4.7236,-3.521 -8.2662,-8.8281 -4.1075,-6.1235 -7.8555,-9.8996 -16.9432,-17.1458 -19.6644,-15.7169 -46.6709,-31.9442 -53.1914,-31.9442 -1.4376,0 -1.643,0.2551 -2.5672,2.6535 -2.0024,5.307 -6.3152,18.8298 -11.8602,37.1492 -3.0806,10.2569 -8.9851,29.648 -13.1439,43.1197 -4.1074,13.4717 -11.4495,37.5575 -16.2757,53.5806 -10.32,34.4958 -16.3784,53.8868 -22.3342,71.9512 -14.3247,43.3748 -25.2095,68.5322 -32.2948,74.7067 -2.2078,1.9391 -4.0561,2.1432 -3.5427,0.4082 0.2054,-0.6123 0.7702,-1.837 1.2836,-2.6535 1.951,-3.1638 3.1833,-7.3482 5.1343,-17.0437 3.4913,-17.6561 11.3982,-50.3658 24.0799,-99.9662 28.136,-109.8658 37.3777,-157.1699 32.7569,-168.0391 -1.0269,-2.5004 -5.4937,-4.7457 -9.3958,-4.7457 -7.3934,0 -10.8334,8.1647 -14.068,33.6282 -3.2346,25.2595 -13.3492,83.5858 -27.5199,158.1905 -12.3223,64.8581 -19.459,99.0476 -22.2315,106.4469 -2.9266,7.6543 -8.1636,10.7671 -10.474,6.2255 -1.951,-3.8272 -2.4645,0.9185 10.1659,-99.66 8.1122,-64.3988 11.0901,-89.4031 13.8113,-115.0708 6.7259,-63.021 7.034,-89.0459 1.2836,-93.8426 -1.9511,-1.633 -3.0293,-1.684 -4.4669,-0.1531 -3.7994,4.0313 -5.391,14.6964 -7.8041,52.4069 -3.594,56.8976 -13.76,163.5486 -22.1289,233.2034 -11.5008,95.4756 -26.4416,157.8332 -39.6881,165.8959 -2.5672,1.5308 -3.7994,1.2247 -6.5206,-1.5309 -11.9629,-12.2981 -25.4148,-76.85 -42.2553,-202.1266 -8.5743,-63.8885 -26.339,-212.0773 -28.5468,-238.3063 -0.6161,-7.2971 -1.0782,-8.3177 -4.4668,-9.7976 -2.6699,-1.1736 -5.8018,-1.0206 -7.3421,0.3572 -2.9779,2.6535 -2.6698,15.666 1.0782,45.6711 7.188,57.714 21.8208,156.6596 32.5515,219.6807 5.0316,29.6479 6.7773,44.9056 6.3152,56.03 -0.308,8.0116 -1.6943,9.9507 -4.3641,6.0214 -5.083,-7.5012 -16.1218,-50.0085 -33.7838,-130.4305 -13.4519,-61.2351 -22.5909,-107.1613 -29.0601,-146.1986 -6.726,-40.5172 -8.0096,-45.467 -12.4251,-46.8959 -2.2591,-0.7654 -9.1904,0.1531 -11.3468,1.4289 -3.2346,1.9901 -3.6453,3.4699 -3.594,12.298 0,8.675 0.8215,13.4717 5.6477,33.9344 7.1367,30.1582 34.3999,132.1145 47.287,176.561 8.3689,29.1376 13.1952,49.8044 12.8871,55.6728 -0.154,2.9087 -0.2054,3.0107 -1.643,3.1638 -1.2322,0.1531 -1.951,-0.3062 -4.3641,-2.8066 -2.4132,-2.4494 -3.2346,-3.7762 -4.7749,-7.8075 -14.1194,-36.792 -75.3203,-221.5176 -81.0707,-244.6849 -2.5158,-10.3079 -5.1343,-13.2165 -11.5009,-13.1145 -4.2101,0.051 -9.6525,1.9391 -19.5103,6.7359 -24.542,11.9918 -34.6052,20.8709 -44.7198,39.4966 -3.4913,6.3786 -7.4961,11.0223 -9.5498,11.0223 -3.0806,0 -5.391,-4.5927 -4.8263,-9.6956 1.5403,-14.7474 22.6423,-43.0176 46.0034,-61.5922 23.5665,-18.7787 60.5335,-37.0472 92.6742,-45.8242 21.9235,-5.9704 43.1282,-8.9301 75.2176,-10.41 12.7331,-0.6123 60.7902,-0.6123 73.6773,-0.051 z m 21.8208,376.3402 c 1.951,1.0206 3.2346,3.47 2.8238,5.3581 -0.4621,2.0922 -2.9779,4.0823 -5.1343,4.0823 -2.1564,0 -4.6722,-1.9901 -5.1343,-4.0823 -0.5648,-2.6535 2.1051,-6.1235 4.7749,-6.1235 0.6675,0 1.8484,0.3572 2.6699,0.7654 z"
         id="path157764"
         style="stroke-width:0.0511859" />
    </g>
  </g>
</svg>
