<?xml version="1.0" encoding="UTF-8" standalone="no"?>
<!-- Created with Inkscape (http://www.inkscape.org/) -->

<svg
   width="209.37482mm"
   height="238.63034mm"
   viewBox="0 0 209.37482 238.63034"
   version="1.1"
   id="svg4345"
   sodipodi:docname="maker_semi_trans.svg"
   inkscape:version="1.1.2 (0a00cf5339, 2022-02-04)"
   xmlns:inkscape="http://www.inkscape.org/namespaces/inkscape"
   xmlns:sodipodi="http://sodipodi.sourceforge.net/DTD/sodipodi-0.dtd"
   xmlns="http://www.w3.org/2000/svg"
   xmlns:svg="http://www.w3.org/2000/svg">
  <sodipodi:namedview
     id="namedview4347"
     pagecolor="#505050"
     bordercolor="#eeeeee"
     borderopacity="1"
     inkscape:pageshadow="0"
     inkscape:pageopacity="0"
     inkscape:pagecheckerboard="0"
     inkscape:document-units="mm"
     showgrid="false"
     inkscape:zoom="1.1474186"
     inkscape:cx="289.7809"
     inkscape:cy="508.96855"
     inkscape:window-width="3440"
     inkscape:window-height="1299"
     inkscape:window-x="3360"
     inkscape:window-y="762"
     inkscape:window-maximized="1"
     inkscape:current-layer="layer1"
     fit-margin-top="0"
     fit-margin-left="0"
     fit-margin-right="0"
     fit-margin-bottom="0" />
  <defs
     id="defs4342">
    <rect
       x="5500"
       y="100"
       width="3800"
       height="4200"
       id="rect66165" />
    <clipPath
       clipPathUnits="userSpaceOnUse"
       id="clipPath156307">
      <rect
         style="fill:#000000;fill-opacity:1;fill-rule:nonzero;stroke:#000000;stroke-width:55.5863;stroke-linejoin:miter;stroke-miterlimit:4;stroke-dasharray:none;stroke-opacity:1"
         id="rect156309"
         width="476.25"
         height="846.66656"
         x="3333.75"
         y="793.75" />
    </clipPath>
  </defs>
  <g
     inkscape:label="Layer 1"
     inkscape:groupmode="layer"
     id="layer1"
     transform="translate(-0.31822949,-0.09282001)">
    <path
       sodipodi:type="star"
       style="fill:#000000;fill-opacity:0.359599;stroke:#000000;stroke-width:200.003;stroke-linejoin:round;stroke-miterlimit:4;stroke-dasharray:none;stroke-opacity:1"
       id="path61-6"
       inkscape:flatsided="true"
       sodipodi:sides="6"
       sodipodi:cx="4500"
       sodipodi:cy="4500"
       sodipodi:r1="2500"
       sodipodi:r2="2165.0635"
       sodipodi:arg1="-1.5707963"
       sodipodi:arg2="-1.0471976"
       inkscape:rounded="0"
       inkscape:randomized="0"
       transform="matrix(0.04618549,0,0,0.04582108,-102.81907,-86.770042)"
       inkscape:transform-center-x="4.0969286e-06"
       inkscape:transform-center-y="1.5364592e-05"
       inkscape:export-filename="/home/asad/Pictures/path61.png"
       inkscape:export-xdpi="96"
       inkscape:export-ydpi="96"
       d="m 4500.0001,2000 2165.0634,1250.0001 0,2500 L 4499.9999,7000 2334.9365,5749.9999 l 0,-2500 z" />
    <g
       id="g157453"
       transform="matrix(0.21200321,0,0,0.21032428,-415.44842,-188.2689)"
       inkscape:export-filename="/home/asad/Pictures/path61.png"
       inkscape:export-xdpi="96"
       inkscape:export-ydpi="96">
      <path
         d="m 3607.3241,892.04542 c 0,49.0337 -0.465,89.7016 -1.1621,90.3987 -0.6972,0.6972 -7.9011,-2.3238 -15.8023,-6.5068 -7.9012,-4.1829 -16.4996,-7.9012 -19.0558,-7.9012 -2.5564,0 -11.3871,3.2535 -19.2882,6.9716 -8.1336,3.9506 -15.8024,6.5068 -16.9643,5.5773 -1.162,-0.6971 -2.0915,-38.5763 -2.0915,-88.3073 0,-47.8719 -0.6971,-86.91253 -1.6267,-86.91253 -0.9296,0 -9.2955,4.41543 -18.5911,9.76043 l -16.9642,9.75976 v 91.09584 91.32848 l -16.732,9.2955 c -9.2955,5.1125 -17.6614,8.8306 -18.5909,8.1335 -0.9298,-0.6971 -1.8592,-40.90018 -1.8592,-89.46928 0,-48.3366 -0.6972,-88.0749 -1.6267,-88.0749 -0.9296,0 -9.2955,4.4154 -18.591,9.7603 l -16.9643,9.7602 v 91.096 91.32838 l -17.8939,9.7603 c -9.9927,5.5773 -24.6329,13.9433 -32.7665,18.8234 -8.1338,4.8802 -15.57,8.366 -16.9643,7.6688 -1.1622,-0.9296 -2.324,-36.4849 -2.5564,-86.68058 l -0.6971,-85.2863 -1.162,89.46928 c -0.9295,77.3851 -1.6268,89.4692 -4.6478,89.4692 -3.0209,0 -3.718,-11.8518 -4.6476,-87.6101 l -1.162,-87.84258 -40.6678,23.4712 c -22.3092,13.0137 -53.4494,31.1399 -69.0193,40.203 -15.5699,9.0632 -39.0411,22.77408 -52.0548,30.21048 -12.7813,7.6687 -26.9569,17.1967 -31.3724,21.1472 l -7.9012,7.4364 v 240.0565 c 0,274.4499 -2.3238,247.9576 22.5418,262.3657 7.4362,4.4154 22.3093,13.4785 33.2314,20.2178 10.9222,6.5068 41.1326,24.633 67.3924,39.7382 26.2598,15.3376 84.3567,49.4986 128.9752,76.2232 44.8508,26.4922 103.645,61.3512 130.8341,77.1536 l 49.2664,29.0484 19.2882,-11.1546 c 25.3301,-14.8729 214.4938,-126.6522 235.1762,-138.9687 9.0631,-5.5773 29.2809,-17.6614 45.3155,-26.957 16.0349,-9.5278 42.0624,-24.8654 58.097,-34.3934 16.0349,-9.5278 35.7878,-21.1473 44.1538,-25.5626 8.366,-4.4154 18.5908,-11.6194 22.5415,-16.4995 l 7.6688,-8.366 v -240.986 -240.986 l -7.6688,-7.9012 c -4.4152,-4.183 -20.2177,-15.1052 -35.5554,-24.1683 -27.4216,-16.26708 -124.095,-72.27258 -146.1717,-84.58908 l -11.6194,-6.5069 -1.1619,87.61018 c -0.9295,75.7583 -1.6267,87.6101 -4.6478,87.6101 -3.021,0 -3.7182,-12.0841 -4.6477,-89.4692 l -1.162,-89.46928 -0.6971,85.2863 c -0.2326,46.94228 -1.1619,85.75098 -2.324,86.44818 -1.6267,0.9296 -48.569,-24.8655 -61.3502,-33.6963 l -6.5069,-4.6477 v -90.39878 -90.3988 l -14.4082,-8.1336 c -8.1334,-4.4154 -16.4995,-8.8306 -18.5907,-9.5279 -3.9508,-1.6266 -4.1832,3.4859 -4.1832,85.5187 0,56.935 -0.9295,87.84258 -2.324,88.77208 -1.3941,0.9296 -9.0629,-2.0914 -17.1966,-6.7392 l -14.6405,-8.1336 -1.6268,-91.32838 c -1.6266,-104.10905 1.3944,-91.09597 -25.0979,-105.96823 l -13.4781,-7.66878 z m 276.3088,112.01078 c 17.4291,10.4574 42.2946,25.0979 55.3082,32.5343 13.2461,7.4364 24.8656,14.6404 26.26,16.2671 1.6267,1.8591 2.0913,78.7794 1.8589,230.0638 l -0.6971,227.0428 -33.6961,20.2177 c -18.591,11.1547 -69.2516,41.365 -112.7082,66.9277 -43.4564,25.5626 -87.8425,51.8225 -98.7648,58.3293 -10.9222,6.2744 -49.4985,29.0484 -85.5184,50.1958 l -65.9982,38.5771 -33.9287,-19.9853 c -18.8234,-11.155 -57.1673,-33.6971 -85.2862,-50.4289 -28.1189,-16.4996 -55.7731,-32.9991 -61.5829,-36.485 -5.8095,-3.7181 -14.1755,-8.5983 -18.591,-11.1546 -18.8233,-10.4574 -56.0053,-32.3019 -110.384,-64.8362 -32.0695,-19.0557 -65.0686,-38.5763 -73.6669,-43.4564 l -15.8024,-8.8308 v -225.8808 -226.1132 l 5.3448,-4.6478 c 2.7888,-2.5562 14.6406,-9.9926 26.0276,-16.4995 11.6193,-6.5068 37.6469,-21.8445 58.0969,-33.9286 20.4502,-12.31648 38.8088,-22.07678 40.6677,-21.84438 3.0212,0.6971 3.7183,16.4995 4.6479,120.37678 0.6971,65.7657 1.3944,119.912 1.859,119.912 0.2324,0.2324 9.7602,6.5068 21.3797,13.7109 l 20.6825,13.4785 0.6971,32.7667 0.6973,32.7666 40.2031,22.774 c 46.2451,26.4922 46.7097,27.1894 29.9779,45.7804 -22.0767,24.6331 -21.1474,61.118 2.5563,89.934 10.4576,12.549 37.6468,52.9844 69.2514,102.483 7.4365,11.8518 22.0769,34.3934 32.5344,49.9634 l 18.591,28.3512 13.0136,3.2535 c 10.9223,2.7885 15.3377,2.7885 26.0275,0.4647 14.6406,-3.2534 15.5701,-4.183 51.1253,-59.956 9.0632,-13.7109 23.7036,-36.7173 32.7666,-50.6605 9.2956,-14.1757 23.0064,-35.5553 30.9076,-47.6395 7.9012,-12.3166 16.9644,-24.6331 19.9855,-27.1894 9.9925,-8.5983 16.0347,-23.471 17.1966,-42.0621 1.3943,-20.2177 -3.0211,-33.9286 -15.1053,-47.1747 -6.2744,-6.9716 -7.9011,-10.4574 -7.204,-16.2672 0.6972,-6.7392 3.2535,-8.8307 34.3935,-26.957 47.4071,-27.8864 44.1537,-23.2387 44.1537,-59.9559 v -30.6752 l 16.9642,-11.1546 c 9.0632,-6.0421 19.0559,-13.2461 22.077,-15.8024 l 5.1123,-4.6478 v -117.8205 c 0,-64.8361 0.6972,-118.28528 1.3945,-119.21488 1.859,-1.8591 9.2954,2.0915 47.1746,25.09788 z m -230.9934,49.4986 c 25.5627,14.6404 51.1253,29.5133 56.9351,32.9991 17.6614,10.6897 76.6879,45.0831 82.73,48.3366 5.3449,3.021 5.5772,3.7181 5.5772,30.4427 0,15.1052 -0.6972,27.8866 -1.3944,28.8161 -1.6266,1.6267 -9.7602,-2.0914 -28.8158,-13.4784 -16.2673,-9.7603 -115.2644,-66.2306 -159.6504,-91.3284 -18.8236,-10.4575 -35.7877,-19.0558 -37.647,-19.0558 -1.859,0 -10.2249,3.9506 -18.591,9.0631 -8.3659,4.8802 -53.4491,30.6752 -100.159,57.1674 -46.71,26.4922 -89.2368,50.6605 -94.814,53.9139 -15.8024,9.0632 -16.9645,7.4365 -16.2673,-24.1683 l 0.6971,-27.1894 11.6195,-6.7391 c 22.774,-13.4786 56.0054,-32.5344 73.202,-42.2946 9.528,-5.345 42.0624,-23.7037 72.0404,-41.1327 30.2102,-17.1967 59.0264,-33.4638 63.9065,-36.2524 l 9.2955,-4.6478 17.4291,9.5278 c 9.5279,5.1126 38.3439,21.3798 63.9065,36.0202 z m -52.5195,85.9834 c 14.8728,8.8307 42.0622,24.6331 60.6533,35.323 18.5907,10.6897 42.2943,24.4006 52.9842,30.6751 l 19.0559,11.387 v 31.1399 c 0,33.2315 -1.3944,37.4145 -9.993,29.5133 -8.8305,-8.1336 -41.5971,-28.3513 -60.8853,-37.6468 -49.9634,-24.4007 -116.4262,-26.957 -168.4811,-6.7393 -20.6825,7.9012 -52.5196,26.4923 -68.0896,39.5059 -6.9716,6.0422 -12.549,9.0632 -14.8728,8.1336 -2.7888,-1.1619 -3.2534,-0.2324 -2.3238,3.2534 1.6266,6.2745 -1.6268,7.6688 -6.2746,2.5564 -3.2533,-3.4859 -3.718,-8.8308 -3.2533,-34.1611 0.6971,-26.9569 1.1618,-29.9779 4.88,-29.7456 2.0916,0.2324 3.9505,-0.9296 3.9505,-2.7887 0,-1.6267 8.1337,-7.6687 18.1263,-13.2461 36.7174,-20.9148 103.8775,-60.1884 106.2012,-62.0475 3.9506,-3.2534 37.1821,-20.9148 39.2736,-20.9148 0.9295,0 14.1755,7.204 29.0485,15.8023 z m 144.3126,113.1728 c 0,23.0065 -0.6971,26.957 -4.88,32.3019 -5.8098,7.4364 -9.7603,6.0421 -6.7392,-2.3238 1.3943,-3.2535 2.3238,-17.6615 2.3238,-32.0695 0,-14.4081 0.6971,-26.957 1.6267,-27.6542 0.6971,-0.9295 2.7887,-0.4647 4.6476,0.9295 2.0917,1.8591 3.0211,9.7603 3.0211,28.8161 z m -137.8059,9.5279 c 24.1683,4.8802 44.851,13.4786 56.2379,23.2388 l 9.5278,8.3659 v 27.4218 c 0,15.1052 -0.9294,28.1189 -2.0913,28.816 -4.8803,3.0211 -7.2042,-6.2744 -7.6689,-32.5343 -0.6971,-26.7245 -0.9295,-27.6541 -5.8097,-28.3512 -5.3448,-0.6972 -5.3448,-0.4648 -5.3448,25.0979 0,21.1473 -0.6972,26.0274 -3.7183,27.1893 -3.9506,1.3944 -21.3796,-3.4858 -23.2388,-6.7393 -0.6972,-0.9295 -1.8591,-14.6403 -2.5562,-30.2103 -0.6972,-17.1967 -2.324,-29.2808 -3.9507,-30.2104 -7.4362,-4.8802 -8.3659,-2.0916 -8.3659,26.9569 0,16.0348 -0.6971,29.5133 -1.6266,29.978 -1.1621,0.6973 -17.4292,0.4648 -36.7173,-0.4647 -25.3301,-0.9296 -34.8582,-2.0915 -35.0906,-4.4154 -0.2324,-1.3944 -0.4648,-14.408 -0.6972,-28.3513 -0.2322,-23.9359 -0.4647,-25.5626 -4.88,-25.5626 -4.4154,0 -4.6479,1.6267 -4.6479,30.2104 0,33.6962 -0.4648,34.3933 -17.8939,35.5552 l -8.8306,0.4648 -0.6972,-26.2597 c -0.6971,-26.957 -1.1618,-28.119 -10.4575,-23.4712 -7.6687,4.183 -8.1335,5.3449 -8.366,31.8371 -0.2322,13.4785 -1.1618,25.5627 -1.859,26.7246 -3.2534,5.3449 -5.1125,-3.9506 -5.5772,-27.8865 -0.4649,-24.8655 -0.2325,-26.4922 5.1123,-32.3019 7.669,-8.366 35.323,-21.3797 53.217,-25.0979 20.45,-4.4154 54.6109,-4.4154 75.9906,0 z m -136.8763,64.139 c -0.4647,21.612 -1.3943,26.2599 -4.183,26.2599 -2.7885,0 -3.7182,-3.9506 -4.1829,-19.9854 -0.6971,-19.9853 1.8591,-32.302 6.5069,-32.302 1.6267,0 2.3239,8.8308 1.859,26.0275 z m 210.7757,1.3943 c 0,32.5343 -4.4154,32.302 -5.3449,-0.2323 -0.4648,-19.753 0,-25.0979 2.3239,-24.4008 2.0914,0.6973 3.021,7.4364 3.021,24.6331 z m -57.3998,51.5901 c 10.6898,2.5563 26.0275,7.9012 34.161,11.8518 21.8445,10.4574 45.7803,37.4144 39.0412,44.1537 -1.8593,1.859 -3.7183,0.2323 -6.7394,-4.8802 -3.9505,-6.5069 -32.0694,-25.3303 -34.6256,-23.0064 -0.4649,0.4648 -3.9507,11.387 -7.669,24.1683 -3.9505,12.7814 -12.084,39.5059 -17.8936,59.2589 -11.1548,36.4848 -18.3588,54.6111 -22.7742,57.3998 -1.3943,0.9295 -1.6266,0.2323 -0.6971,-1.3944 1.162,-1.6267 2.0916,-5.1125 2.5562,-7.9012 0.2324,-2.7886 4.8802,-22.3091 10.2252,-43.4564 16.2671,-62.9771 21.1472,-89.0045 17.1966,-91.3284 -6.5067,-3.9506 -9.2954,0.2324 -10.9221,16.0348 -1.6267,15.8023 -20.4503,117.1234 -23.936,129.2075 -2.0915,7.204 -6.7392,7.6688 -6.2744,0.6972 0.2324,-2.5563 2.5563,-21.3797 5.1125,-41.8298 10.9222,-85.2863 12.3166,-108.0603 6.7391,-108.0603 -2.5563,0 -3.7181,6.5069 -4.8801,26.7246 -1.6266,28.5837 -9.0631,105.2716 -13.246,133.6229 -6.2744,45.0832 -14.4081,70.181 -20.4501,63.6742 -7.2042,-7.6688 -15.57,-53.6815 -26.7246,-147.3338 -5.5774,-45.5479 -8.366,-70.6458 -8.366,-73.8992 0,-1.3944 -1.6267,-2.7887 -3.7182,-2.7887 -3.2535,0 -3.4857,2.0915 -2.3239,15.57 2.3239,21.3796 12.0843,89.2368 17.429,119.2149 4.4155,25.0978 3.2536,38.344 -1.859,22.5416 -5.3449,-15.8024 -22.774,-95.7438 -28.119,-128.2781 -3.9506,-24.8654 -4.4152,-26.7245 -7.6688,-26.7245 -9.0631,0.2324 -9.0631,3.2534 1.6268,44.386 5.8097,22.3092 13.9432,52.752 18.3585,67.8572 4.4155,14.8728 7.2041,27.8865 6.0423,28.3513 -0.9297,0.6972 -3.0211,-0.6971 -4.4155,-3.2534 -3.021,-6.042 -38.3439,-112.708 -40.6679,-122.9331 -1.859,-9.0631 -5.1124,-9.2955 -20.2178,-1.1619 -7.9012,4.4154 -13.0135,9.0631 -16.267,15.3376 -3.2533,6.5068 -5.3449,8.3659 -6.9716,6.7392 -3.9505,-3.9506 2.0915,-15.8023 14.6406,-28.5837 13.0135,-13.4785 37.879,-26.2598 60.4205,-30.9075 23.7038,-5.345 80.4063,-4.6478 103.8774,0.9295 z m -26.492,186.1426 c -0.6974,1.1619 -2.324,1.6267 -3.4861,0.6971 -1.1618,-0.6971 -1.6266,-2.3239 -0.6972,-3.4858 0.6972,-1.1619 2.3241,-1.6267 3.4859,-0.6971 1.1619,0.6971 1.6267,2.3238 0.6974,3.4858 z"
         id="path156055"
         style="stroke-width:0.232389"
         clip-path="url(#clipPath156307)"
         transform="matrix(1.0448946,0,0,1.0448946,-1278.065,170.71675)" />
      <path
         sodipodi:type="star"
         style="fill:#000000;fill-opacity:1;fill-rule:nonzero;stroke:#000000;stroke-width:200;stroke-linejoin:miter;stroke-miterlimit:4;stroke-dasharray:none;stroke-opacity:1"
         id="path157290"
         inkscape:flatsided="true"
         sodipodi:sides="3"
         sodipodi:cx="9400"
         sodipodi:cy="7100"
         sodipodi:r1="100"
         sodipodi:r2="50"
         sodipodi:arg1="0"
         sodipodi:arg2="1.0471976"
         inkscape:rounded="0"
         inkscape:randomized="0"
         transform="matrix(-0.14402224,-0.06413127,0.08374434,-0.11029199,3211.7099,3278.6781)"
         inkscape:transform-center-x="-2.3796136"
         inkscape:transform-center-y="-3.0881753"
         d="m 9500,7100 -150,86.6025 v -173.205 z" />
    </g>
  </g>
</svg>
