<?xml version="1.0" encoding="UTF-8" standalone="no"?>
<!-- Created with Inkscape (http://www.inkscape.org/) -->

<svg
   version="1.1"
   id="svg1"
   width="607.38086"
   height="448.28796"
   viewBox="0 0 607.38086 448.28796"
   sodipodi:docname="QueueWing_Logo.svg"
   inkscape:version="1.4 (e7c3feb1, 2024-10-09)"
   inkscape:export-filename="QueueWing_Logo.svg"
   inkscape:export-xdpi="96"
   inkscape:export-ydpi="96"
   xmlns:inkscape="http://www.inkscape.org/namespaces/inkscape"
   xmlns:sodipodi="http://sodipodi.sourceforge.net/DTD/sodipodi-0.dtd"
   xmlns="http://www.w3.org/2000/svg"
   xmlns:svg="http://www.w3.org/2000/svg">
  <defs
     id="defs1" />
  <sodipodi:namedview
     id="namedview1"
     pagecolor="#505050"
     bordercolor="#ffffff"
     borderopacity="1"
     inkscape:showpageshadow="0"
     inkscape:pageopacity="0"
     inkscape:pagecheckerboard="1"
     inkscape:deskcolor="#505050"
     inkscape:zoom="0.98535156"
     inkscape:cx="291.2666"
     inkscape:cy="263.86521"
     inkscape:window-width="2368"
     inkscape:window-height="1295"
     inkscape:window-x="2515"
     inkscape:window-y="823"
     inkscape:window-maximized="0"
     inkscape:current-layer="g1" />
  <g
     inkscape:groupmode="layer"
     inkscape:label="Image"
     id="g1"
     transform="translate(-220.232,-248.10692)">
    <g
       id="g2"
       style="fill:#0ea5a6;fill-opacity:1">
      <path
         style="fill:#0ea5a6;fill-opacity:1"
         d="M 322.40499,578.75 320.5,576.5 l 2.25,1.90499 c 2.11444,1.79022 2.70524,2.59501 1.90499,2.59501 -0.18976,0 -1.20226,-1.0125 -2.25,-2.25 z M 537.19495,488.5 c 0.0204,-1.65 0.2445,-2.20394 0.49804,-1.23097 0.25354,0.97297 0.23687,2.32297 -0.0371,3 -0.27393,0.67703 -0.48137,-0.11903 -0.46099,-1.76903 z m -316.94277,-7 c 0.0111,-2.2 0.21589,-2.98225 0.45508,-1.73834 0.23919,1.24391 0.23011,3.04391 -0.0202,4 -0.25029,0.95609 -0.446,-0.0617 -0.4349,-2.26166 z M 271,347.62244 c 0,-0.20765 0.7875,-0.99515 1.75,-1.75 1.58606,-1.24387 1.62143,-1.2085 0.37756,0.37756 C 271.82119,347.91575 271,348.44548 271,347.62244 Z"
         id="path7" />
      <path
         style="fill:#0ea5a6;fill-opacity:1"
         d="m 421.8125,685.31689 c 0.72187,-0.28887 1.58438,-0.25335 1.91667,0.0789 0.33229,0.33229 -0.25834,0.56864 -1.3125,0.52522 -1.16495,-0.048 -1.4019,-0.28494 -0.60417,-0.60416 z M 531.92431,671.25 529.5,668.5 l 2.75,2.42431 c 1.5125,1.33338 2.75,2.57088 2.75,2.75 0,0.78428 -0.8098,0.14598 -3.07569,-2.42431 z M 220.232,488 c 0,-1.925 0.2058,-2.7125 0.45733,-1.75 0.25152,0.9625 0.25152,2.5375 0,3.5 -0.25153,0.9625 -0.45733,0.175 -0.45733,-1.75 z"
         id="path6" />
      <path
         style="fill:#0ea5a6;fill-opacity:1"
         d="m 409.8125,685.31689 c 0.72187,-0.28887 1.58438,-0.25335 1.91667,0.0789 0.33229,0.33229 -0.25834,0.56864 -1.3125,0.52522 -1.16495,-0.048 -1.4019,-0.28494 -0.60417,-0.60416 z M 278,340.5 c 1.86578,-1.925 3.61733,-3.5 3.89233,-3.5 0.275,0 -1.02655,1.575 -2.89233,3.5 -1.86578,1.925 -3.61733,3.5 -3.89233,3.5 -0.275,0 1.02655,-1.575 2.89233,-3.5 z"
         id="path5" />
      <path
         style="fill:#0ea5a6;fill-opacity:1"
         d="m 413.76166,685.29274 c 1.24391,-0.23919 3.04391,-0.23011 4,0.0202 0.95609,0.25029 -0.0617,0.446 -2.26166,0.4349 -2.2,-0.0111 -2.98225,-0.21589 -1.73834,-0.45508 z M 408.8105,516.25191 c 7.87078,-0.16916 20.47078,-0.16875 28,9.2e-4 7.52923,0.16966 1.0895,0.30807 -14.3105,0.30756 -15.4,-5e-4 -21.56027,-0.13932 -13.6895,-0.30848 z"
         id="path4" />
      <path
         style="fill:#0ea5a6;fill-opacity:1"
         d="m 795.5,388 c -0.33992,-0.55 -0.14148,-1 0.44098,-1 0.58246,0 1.05902,0.45 1.05902,1 0,0.55 -0.19844,1 -0.44098,1 -0.24254,0 -0.7191,-0.45 -1.05902,-1 z"
         id="path3" />
      <path
         style="fill:#0ea5a6;fill-opacity:1"
         d="m 577,695.99231 c -16.99715,-2.13177 -27.68899,-8.4473 -46.93175,-27.72199 l -14.43176,-14.45569 -3.56824,2.15423 c -14.25625,8.60683 -42.79939,20.93435 -56.56825,24.43132 -37.65112,9.56249 -88.11377,3.81589 -123.89307,-14.10873 -12.99348,-6.50944 -25.46708,-14.46995 -36.96709,-23.59197 -46.1258,-36.58782 -73.5345,-95.16651 -73.62032,-157.34353 -0.0495,-35.88413 6.64418,-66.1537 20.97613,-94.85595 8.77583,-17.57515 17.37412,-29.6264 31.92469,-44.74523 34.76214,-36.11973 66.73643,-52.81955 113.57966,-59.32142 18.85827,-2.61754 46.19294,-0.97074 68.5,4.12682 19.08571,4.36143 45.19064,15.66615 60.68952,26.28153 20.73824,14.20389 44.30671,38.68128 56.27177,58.44189 1.90371,3.14403 3.72355,5.71641 4.0441,5.71641 0.32055,0 3.26297,-2.48487 6.53871,-5.52193 15.62749,-14.48883 31.22063,-22.99385 71.4559,-38.97444 93.58547,-37.17016 139.77466,-60.88932 164.11163,-84.27491 6.55556,-6.29929 6.36962,-6.46814 7.9879,7.25349 1.38313,11.72773 -0.0412,26.27804 -4.12147,42.10288 -9.73054,37.7388 -28.2649,61.51887 -64.46256,82.70711 -8.87167,5.19302 -34.7993,16.78415 -53.0155,23.70096 -30.23537,11.48055 -53.17332,23.37672 -72.68049,37.69384 -7.79513,5.72117 -31.452,29.01384 -30.46744,29.9984 0.21831,0.21831 4.1659,-2.1272 8.77243,-5.21226 10.56902,-7.07821 39.67804,-21.78284 55.3365,-27.95361 6.57854,-2.59251 24.12854,-9.11287 39,-14.48969 44.42882,-16.06337 68.86442,-26.61604 83.40348,-36.01835 3.50047,-2.26372 6.61788,-3.86246 6.92759,-3.55275 1.04936,1.04936 -1.69729,14.99287 -4.83424,24.54126 -6.8894,20.97025 -19.69143,42.05717 -33.03115,54.40739 -17.87801,16.55189 -42.42595,28.51642 -89.42668,43.58608 -15.05134,4.82585 -31.18338,12.44653 -44,20.78534 -10.22889,6.65517 -22.76665,16.98072 -22.04216,18.15297 0.26647,0.43116 5.49319,-1.65786 11.61493,-4.64226 14.74657,-7.18907 30.38791,-12.31048 55.935,-18.31465 37.33094,-8.77365 52.67418,-13.2238 65.62122,-19.03274 7.63628,-3.42617 7.54685,-4.23329 1.22514,11.05787 -8.894,21.51309 -19.47994,35.56318 -34.44965,45.72298 -13.78142,9.35333 -26.77107,14.49747 -47.40448,18.77307 -51.3662,10.64397 -66.13681,15.37969 -83.98941,26.92848 l -7.16422,4.63451 6.32682,7.1608 c 3.47974,3.93844 18.63254,20.83193 33.67289,37.54107 15.04034,16.70915 27.19034,30.49035 27,30.62489 -0.4733,0.33454 -38.25131,5.42472 -43.84608,5.90778 -2.475,0.2137 -6.975,0.0781 -10,-0.30127 z M 432.16515,616.53043 c 11.00278,-1.91872 20.29295,-4.83483 30.65658,-9.62284 l 8.40638,-3.88376 -3.27117,-3.76191 c -3.43269,-3.94767 -71.54335,-78.66193 -73.70694,-80.85312 -0.6875,-0.69627 -1.25045,-1.41059 -1.25101,-1.58737 -5.5e-4,-0.17679 15.18695,-0.0889 33.75,0.1954 33.26031,0.50931 33.84761,0.5542 40.3955,3.08759 11.1435,4.31142 23.19031,13.09337 36.72885,26.77478 14.36934,14.52098 12.47994,14.65029 20.15207,-1.3792 10.17725,-21.26348 13.42375,-35.71734 13.36439,-59.5 -0.0326,-13.05742 -0.49617,-18.62572 -2.22188,-26.68841 -7.24552,-33.85187 -25.4135,-63.53764 -50.41577,-82.37742 C 469.72157,365.60829 445.04987,355.2862 427.5,352.98115 c -24.61882,-3.2335 -55.37135,2.22329 -73.69377,13.07637 -9.08213,5.3797 -25.37897,17.71524 -30.47295,23.06585 -16.81081,17.65768 -29.57731,41.55274 -34.92902,65.37663 -2.52174,11.22588 -3.0221,39.12523 -0.92646,51.65807 3.52856,21.10233 10.73209,39.44523 22.28775,56.75302 17.68806,26.49273 50.10542,47.93023 80.88972,53.49211 10.45896,1.88965 31.04167,1.95273 41.50988,0.12723 z"
         id="path2" />
    </g>
  </g>
</svg>
